<?xml version="1.0" encoding="UTF-8" standalone="no"?>
<svg xmlns:dc="http://purl.org/dc/elements/1.1/" xmlns:cc="http://creativecommons.org/ns#" xmlns:rdf="http://www.w3.org/1999/02/22-rdf-syntax-ns#" xmlns:svg="http://www.w3.org/2000/svg" xmlns="http://www.w3.org/2000/svg" xmlns:xlink="http://www.w3.org/1999/xlink" xmlns:sodipodi="http://sodipodi.sourceforge.net/DTD/sodipodi-0.dtd" xmlns:inkscape="http://www.inkscape.org/namespaces/inkscape" viewBox="0 0 1920 1080" height="1080" width="1920" xml:space="preserve" id="svg28" version="1.1">
  <metadata id="metadata34"/>
  <defs id="defs32">
    <clipPath id="clipPath44" clipPathUnits="userSpaceOnUse">
      <path id="path42" clip-rule="evenodd" d="M 0,0 H 6000 V 3406.25 H 0 Z"/>
    </clipPath>
    <clipPath id="clipPath58" clipPathUnits="userSpaceOnUse">
      <path id="path56" clip-rule="evenodd" d="M 0,0 H 6000 V 3375 H 0 Z"/>
    </clipPath>
    <clipPath id="clipPath70" clipPathUnits="userSpaceOnUse">
      <path id="path68" clip-rule="evenodd" d="M 0,0 H 6000 V 3375 H 0 Z"/>
    </clipPath>
    <clipPath id="clipPath138" clipPathUnits="userSpaceOnUse">
      <path id="path136" clip-rule="evenodd" d="m 4994.9824,2832.8521 h 540.625 v 462.5 h -540.625 z"/>
    </clipPath>
    <clipPath id="clipPath172" clipPathUnits="userSpaceOnUse">
      <path id="path170" d="M 0,0 H 79 V 227 H 0 Z"/>
    </clipPath>
    <clipPath id="clipPath192" clipPathUnits="userSpaceOnUse">
      <path id="path190" d="M 0,0 H 80 V 227 H 0 Z"/>
    </clipPath>
    <clipPath id="clipPath212" clipPathUnits="userSpaceOnUse">
      <path id="path210" d="M 0,0 H 79 V 227 H 0 Z"/>
    </clipPath>
    <clipPath id="clipPath232" clipPathUnits="userSpaceOnUse">
      <path id="path230" d="M 0,0 H 78 V 227 H 0 Z"/>
    </clipPath>
    <clipPath id="clipPath272" clipPathUnits="userSpaceOnUse">
      <path id="path270" d="M 0,0 H 88 V 256 H 0 Z"/>
    </clipPath>
    <clipPath id="clipPath292" clipPathUnits="userSpaceOnUse">
      <path id="path290" d="M 0,0 H 89 V 256 H 0 Z"/>
    </clipPath>
    <clipPath id="clipPath312" clipPathUnits="userSpaceOnUse">
      <path id="path310" d="M 0,0 H 88 V 256 H 0 Z"/>
    </clipPath>
    <clipPath id="clipPath346" clipPathUnits="userSpaceOnUse">
      <path id="path344" d="M 0,0 H 97 V 284 H 0 Z"/>
    </clipPath>
    <clipPath id="clipPath366" clipPathUnits="userSpaceOnUse">
      <path id="path364" d="M 0,0 H 98 V 284 H 0 Z"/>
    </clipPath>
    <clipPath id="clipPath394" clipPathUnits="userSpaceOnUse">
      <path id="path392" d="M 0,0 H 110 V 316 H 0 Z"/>
    </clipPath>
    <clipPath id="clipPath414" clipPathUnits="userSpaceOnUse">
      <path id="path412" clip-rule="evenodd" d="M 0,0 H 6000 V 3375 H 0 Z"/>
    </clipPath>
    <clipPath id="clipPath452" clipPathUnits="userSpaceOnUse">
      <path id="path450" clip-rule="evenodd" d="m 2923.6724,2889.1033 h 437.5 v 406.25 h -437.5 z"/>
    </clipPath>
    <clipPath id="clipPath466" clipPathUnits="userSpaceOnUse">
      <path id="path464" clip-rule="evenodd" d="m 839.09662,2841.741 h 371.87508 v 453.125 H 839.09662 Z"/>
    </clipPath>
    <clipPath id="clipPath478" clipPathUnits="userSpaceOnUse">
      <path id="path476" clip-rule="evenodd" d="M 0,0 H 6000 V 3375 H 0 Z"/>
    </clipPath>
    <clipPath id="clipPath522" clipPathUnits="userSpaceOnUse">
      <path id="path520" clip-rule="evenodd" d="m 3640.2417,2923.3604 132.8003,-715.9122 -181.2825,-33.6274 -132.8003,715.9121 z"/>
    </clipPath>
    <clipPath id="clipPath534" clipPathUnits="userSpaceOnUse">
      <path id="path532" clip-rule="evenodd" d="M 3348.3237,486.47763 3464.47,882.28857 3566.4214,852.37213 3450.2751,456.56119 Z"/>
    </clipPath>
    <clipPath id="clipPath546" clipPathUnits="userSpaceOnUse">
      <path id="path544" clip-rule="evenodd" d="m 4606.353,1085.8084 500.3008,550.3303 141.0508,-128.2283 -500.3003,-550.33032 z"/>
    </clipPath>
    <clipPath id="clipPath558" clipPathUnits="userSpaceOnUse">
      <path id="path556" clip-rule="evenodd" d="m 1661.8778,1458.198 588.3654,-523.43323 132.1889,148.58703 -588.3653,523.4334 z"/>
    </clipPath>
    <clipPath id="clipPath570" clipPathUnits="userSpaceOnUse">
      <path id="path568" clip-rule="evenodd" d="m 1464.8456,2922.906 353.2754,-682.7685 -174.8554,-90.4729 -353.2754,682.7685 z"/>
    </clipPath>
    <clipPath id="clipPath582" clipPathUnits="userSpaceOnUse">
      <path id="path580" clip-rule="evenodd" d="m 5104.0854,2225.4453 19.9776,549.6372 140.5322,-5.1079 -19.9775,-549.6372 z"/>
    </clipPath>
    <clipPath id="clipPath594" clipPathUnits="userSpaceOnUse">
      <path id="path592" clip-rule="evenodd" d="M 637.03882,1324.8793 792.43518,2848.2236 403.9726,2887.8511 248.57628,1364.5064 Z"/>
    </clipPath>
    <clipPath id="clipPath606" clipPathUnits="userSpaceOnUse">
      <path id="path604" clip-rule="evenodd" d="m 3574.4556,1593.5472 66.1152,-356.4198 -92.1775,-17.0987 -66.1152,356.4198 z"/>
    </clipPath>
    <clipPath id="clipPath618" clipPathUnits="userSpaceOnUse">
      <path id="path616" clip-rule="evenodd" d="m 1131.5133,486.51706 736.6765,-311.94196 78.747,185.96762 -736.6764,311.94196 z"/>
    </clipPath>
    <clipPath id="clipPath630" clipPathUnits="userSpaceOnUse">
      <path id="path628" clip-rule="evenodd" d="m 4308.291,52.883839 h 1625 V 621.63384 h -1625 z"/>
    </clipPath>
    <mask id="mask634" height="1" width="1" y="0" x="0" maskUnits="userSpaceOnUse">
      <image id="image636" preserveAspectRatio="none" style="image-rendering:optimizeSpeed" height="1" width="1"/>
    </mask>
  </defs>
  <g transform="matrix(0.31999998,0,0,0.31999998,0,5.3930666e-5)" id="g36">
    <g id="g38">
      <g clip-path="url(#clipPath44)" id="g40">
        <g transform="scale(3.125)" id="g46">
          <path id="path48" style="fill:#ffffff;fill-opacity:1;fill-rule:nonzero;stroke:none" d="M 0,0 H 1920 V 1090 H 0 Z"/>
          <path id="path50" style="fill:#ffffff;fill-opacity:1;fill-rule:nonzero;stroke:none" d="M 0,0 H 1920 V 1080 H 0 Z"/>
        </g>
      </g>
    </g>
    <g id="g52">
      <g clip-path="url(#clipPath58)" id="g54">
        <g transform="scale(3.125)" id="g60">
          <path id="path62" style="fill:#ffffff;fill-opacity:1;fill-rule:nonzero;stroke:none" d="M 0,0 H 1920 V 1080 H 0 Z"/>
        </g>
      </g>
    </g>
    <g id="g64">
      <g clip-path="url(#clipPath70)" id="g66">
        <g transform="matrix(7.5876579,0,0,7.6020932,1878.0554,83.44104)" id="g72">
          <path id="path74" style="fill:#777777;fill-opacity:1;fill-rule:nonzero;stroke:none" d="m 285.9758,4.6999998 c 2.80002,0 5.10001,2.3000002 5.10001,5.1000004 V 44.434181 c 0,2.799999 -2.29999,5.100003 -5.10001,5.100003 H 9.8000002 C 7,49.534184 4.6999998,47.23418 4.6999998,44.434181 V 9.8000002 C 4.6999998,7 7,4.6999998 9.8000002,4.6999998 H 285.9758 M 285.9758,0 H 9.8000002 C 4.4000001,0 0,4.4000001 0,9.8000002 V 44.434181 c 0,5.400002 4.4000001,9.799999 9.8000002,9.799999 H 285.9758 c 5.39999,0 9.80002,-4.399997 9.80002,-9.799999 V 9.8000002 C 295.77582,4.4000001 291.37579,0 285.9758,0 Z"/>
        </g>
        <g transform="matrix(3.125,0,0,3.125,1924.8594,196.99062)" id="g76">
          <text id="text80" style="font-variant:normal;font-weight:normal;font-size:42.66px;font-family:Oswald;-inkscape-font-specification:Oswald-Regular;writing-mode:lr-tb;fill:#555555;fill-opacity:1;fill-rule:nonzero;stroke:none" transform="translate(106.5625,49)">
            <tspan id="tspan78" y="0" x="0 20.77356 41.248535 59.377411 73.070053 82.838318 101.735 120.50372 138.46198 148.23024 166.99896 185.72502 195.49329 209.18593 238.19214 256.15039 265.91864 284.09018">¿Por qué unirme a </tspan>
          </text>
          <text id="text84" style="font-variant:normal;font-weight:bold;font-size:42.66px;font-family:Oswald;-inkscape-font-specification:Oswald-Bold;writing-mode:lr-tb;fill:#0096ad;fill-opacity:1;fill-rule:nonzero;stroke:none" transform="translate(400.40625,49)">
            <tspan id="tspan82" y="0" x="0 11.68779 31.992126 45.642105 65.690506 82.027817 93.331711 113.63605 124.04416 144.00725">laferia.cr</tspan>
          </text>
          <text id="text88" style="font-variant:normal;font-weight:normal;font-size:42.66px;font-family:Oswald;-inkscape-font-specification:Oswald-Regular;writing-mode:lr-tb;fill:#555555;fill-opacity:1;fill-rule:nonzero;stroke:none" transform="translate(560.75,49)">
            <tspan id="tspan86" y="0" x="0">?</tspan>
          </text>
        </g>
        <g transform="matrix(7.5824752,0,0,7.6020932,2303.2275,839.16742)" id="g90">
          <path id="path92" style="fill:#777777;fill-opacity:1;fill-rule:nonzero;stroke:none" d="m 306.09293,4.6999998 c 2.79998,0 5.1,2.3000002 5.1,5.1000004 V 42.200001 c 0,2.799999 -2.30002,5.099998 -5.1,5.099998 H 9.8000002 C 7,47.299999 4.6999998,45 4.6999998,42.200001 V 9.8000002 C 4.6999998,7 7,4.6999998 9.8000002,4.6999998 H 306.09293 M 306.09293,0 H 9.8000002 C 4.4000001,0 0,4.4000001 0,9.8000002 V 42.200001 C 0,47.599998 4.4000001,52 9.8000002,52 H 306.09293 c 5.39999,0 9.79998,-4.400002 9.79998,-9.799999 V 9.8000002 C 315.89291,4.4000001 311.49292,0 306.09293,0 Z"/>
        </g>
        <g transform="matrix(3.125,0,0,3.125,2466.261,944.24164)" id="g94">
          <text id="text98" style="font-variant:normal;font-weight:normal;font-size:42.66px;font-family:Oswald;-inkscape-font-specification:Oswald-Regular;writing-mode:lr-tb;fill:#555555;fill-opacity:1;fill-rule:nonzero;stroke:none" transform="translate(28.1875,49)">
            <tspan id="tspan96" y="0" x="0 23.076996 41.845718 51.613983 69.572235 83.264877 101.39375 111.16202 127.58466 145.54291 164.26897 183.123 201.08125 214.7739 224.54216 243.56682 257.25946 275.38834 294.24237 313.01111 330.54279 343.68091 361.80978 377.76318 387.53143 405.48969 424.21576">Quiero vender productos en </tspan>
          </text>
          <text id="text102" style="font-variant:normal;font-weight:bold;font-size:42.66px;font-family:Oswald;-inkscape-font-specification:Oswald-Bold;writing-mode:lr-tb;fill:#69a95d;fill-opacity:1;fill-rule:nonzero;stroke:none" transform="translate(462.15625,49)">
            <tspan id="tspan100" y="0" x="0 11.68779 31.992126 45.642105 65.690506 82.027817 93.331711 113.63605 124.04416 144.00725">laferia.cr</tspan>
          </text>
        </g>
        <g transform="matrix(7.5973167,0,0,7.6020927,58.675743,658.82495)" id="g104">
          <path id="path106" style="fill:#777777;fill-opacity:1;fill-rule:nonzero;stroke:none" d="m 148.18222,4.6999998 c 2.8,0 5.10001,2.3000002 5.10001,5.1000004 V 81.900963 c 0,2.800003 -2.30001,5.099998 -5.10001,5.099998 H 9.8000002 C 7,87.000961 4.6999998,84.700966 4.6999998,81.900963 V 9.8000002 C 4.6999998,7 7,4.6999998 9.8000002,4.6999998 H 148.18222 M 148.18222,0 H 9.8000002 C 4.4000001,0 0,4.4000001 0,9.8000002 V 81.900963 c 0,5.400001 4.4000001,9.800003 9.8000002,9.800003 H 148.18222 c 5.40001,0 9.8,-4.400002 9.8,-9.800003 V 9.8000002 C 157.98222,4.4000001 153.58223,0 148.18222,0 Z"/>
        </g>
        <g transform="matrix(7.4242935,0,0,7.4374399,2825.7493,1577.943)" id="g108">
          <path id="path110" style="fill:#777777;fill-opacity:1;fill-rule:nonzero;stroke:none" d="m 168.17677,4.6999998 c 2.80001,0 5.10001,2.3000002 5.10001,5.1000004 V 76.743874 c 0,2.800003 -2.3,5.100006 -5.10001,5.100006 H 9.8000002 C 7,81.84388 4.6999998,79.543877 4.6999998,76.743874 V 9.8000002 C 4.6999998,7 7,4.6999998 9.8000002,4.6999998 H 168.17677 M 168.17677,0 H 9.8000002 C 4.4000001,0 0,4.4000001 0,9.8000002 V 76.743874 c 0,5.400001 4.4000001,9.800003 9.8000002,9.800003 H 168.17677 c 5.40001,0 9.80001,-4.400002 9.80001,-9.800003 V 9.8000002 C 177.97678,4.4000001 173.57678,0 168.17677,0 Z"/>
        </g>
        <g transform="matrix(3.125,0,0,3.125,3000,1712.4695)" id="g112">
          <text id="text116" style="font-variant:normal;font-weight:normal;font-size:42.66px;font-family:Oswald;-inkscape-font-specification:Oswald-Regular;writing-mode:lr-tb;fill:#555555;fill-opacity:1;fill-rule:nonzero;stroke:none" transform="translate(6.796875,49)">
            <tspan id="tspan114" y="0" x="0 23.076996 41.845718 51.613983 69.572235 83.264877 101.39375 111.16202 127.58466 145.54291 164.26897 183.123 201.08125 214.7739">Quiero vender </tspan>
          </text>
          <text id="text120" style="font-variant:normal;font-weight:bold;font-size:42.66px;font-family:Oswald;-inkscape-font-specification:Oswald-Bold;writing-mode:lr-tb;fill:#fbb040;fill-opacity:1;fill-rule:nonzero;stroke:none" transform="translate(231.32813,49)">
            <tspan id="tspan118" y="0" x="0 18.086227 38.689163 50.376953">sólo</tspan>
          </text>
          <text id="text124" style="font-variant:normal;font-weight:bold;font-size:42.66px;font-family:Oswald;-inkscape-font-specification:Oswald-Bold;writing-mode:lr-tb;fill:#fbb040;fill-opacity:1;fill-rule:nonzero;stroke:none" transform="translate(30.75,108)">
            <tspan id="tspan122" y="0" x="0 32.120102 43.423996 61.510223 72.430206 93.971573 110.30888 130.91182 152.36787 173.86659 193.82968 208.92998 229.53291">mis productos</tspan>
          </text>
        </g>
        <g transform="matrix(3.1116948,0,0,3.1116948,248.43559,2947.3784)" id="g126">
          <text id="text130" style="font-variant:normal;font-weight:normal;font-size:85.69px;font-family:Oswald;-inkscape-font-specification:Oswald-Regular;writing-mode:lr-tb;fill:#f27052;fill-opacity:1;fill-rule:nonzero;stroke:none" transform="translate(0,98)">
            <tspan id="tspan128" y="0" x="0 41.129959 77.204361 104.71002 129.30231 148.92473">Perfil</tspan>
          </text>
        </g>
      </g>
    </g>
    <g id="g132">
      <g clip-path="url(#clipPath138)" id="g134">
        <g transform="matrix(1.0890124,0,0,1.0894624,4994.9824,2833.0979)" id="g140">
          <path id="path142" style="fill:#69a95d;fill-opacity:1;fill-rule:nonzero;stroke:none" d="m 421.35501,107.81 c 0.012,0 0.023,0 0.039,0 0,6.394 -0.11801,12.795 0.027,19.18899 0.18601,8.105 2.884,15.343 7.41101,22.103 2.21301,3.29401 4.22101,7.088 4.98901,10.922 2.60001,13.05099 4.611,26.22101 6.85502,39.34399 1.25399,7.364 4.33899,10.058 11.64401,10.15201 2.82001,0.039 5.64499,0.031 8.46799,0.004 7.246,-0.087 10.64599,-2.855 11.872,-9.987 1.65302,-9.616 2.892,-19.30701 4.78901,-28.864 1.32501,-6.72501 1.95599,-14.29401 5.57699,-19.69301 5.36402,-8.00301 8.78699,-16.089 8.94501,-25.523 0.21301,-12.227 0.099,-24.458 0.047,-36.689005 -0.035,-9.234001 -4.133,-16.104004 -12.952,-19.125 -15.01599,-5.151001 -30.276,-5.143997 -45.24899,0.117996 -8.28202,2.911003 -12.33701,9.482002 -12.45099,18.289002 -0.0861,6.582031 -0.0111,13.169027 -0.0111,19.760027 z m 63.108,-76.751 C 484.55801,15.069 472.026,2.1870003 456.20602,2.0020008 440.75299,1.8199999 427.39001,14.97 427.173,30.577999 426.95599,46.224998 439.83002,59.209 455.71701,59.370998 471.81,59.535999 484.36801,47.167 484.46301,31.059 Z"/>
          <path id="path144" style="fill:#69a95d;fill-opacity:1;fill-rule:evenodd;stroke:none" d="m 421.35501,107.81 c 0,-6.59101 -0.075,-13.178004 0.012,-19.761004 0.11402,-8.806999 4.16901,-15.377998 12.45099,-18.289001 14.973,-5.262002 30.233,-5.269997 45.249,-0.117997 8.819,3.020996 12.91699,9.891999 12.95199,19.125 0.052,12.231002 0.16599,24.462002 -0.047,36.688992 -0.15798,9.435 -3.58099,17.521 -8.945,25.523 -3.621,5.399 -4.25202,12.968 -5.577,19.69301 -1.897,9.557 -3.13598,19.248 -4.789,28.864 -1.22699,7.13099 -4.62601,9.89999 -11.87201,9.98699 -2.823,0.027 -5.647,0.035 -8.46799,-0.004 -7.30499,-0.095 -10.39001,-2.789 -11.64401,-10.152 -2.24399,-13.123 -4.25601,-26.29199 -6.85501,-39.34399 -0.76901,-3.834 -2.776,-7.62801 -4.98901,-10.922 -4.52701,-6.75999 -7.22602,-13.998 -7.41101,-22.10299 -0.146,-6.394 -0.027,-12.795 -0.027,-19.189 -0.0159,9.8e-4 -0.0279,9.8e-4 -0.0399,9.8e-4 z"/>
          <path id="path146" style="fill:#69a95d;fill-opacity:1;fill-rule:evenodd;stroke:none" d="m 484.46301,31.059 c -0.095,16.108 -12.65301,28.476999 -28.746,28.312002 -15.88699,-0.161999 -28.76099,-13.146 -28.54401,-28.792999 0.21701,-15.607 13.57999,-28.757 29.03299,-28.5760003 C 472.026,2.187 484.55801,15.069 484.46301,31.059 Z"/>
          <path id="path148" style="fill:#69a95d;fill-opacity:1;fill-rule:nonzero;stroke:none" d="m 146.533,107.81 c 0.012,0 0.024,0 0.04,0 0,6.394 -0.114,12.795 0.028,19.18899 0.18499,8.105 2.88699,15.343 7.41499,22.103 2.20799,3.29401 4.216,7.088 4.985,10.922 2.60401,13.05099 4.61101,26.22101 6.855,39.34399 1.25399,7.364 4.339,10.058 11.64399,10.15201 2.82001,0.039 5.644,0.031 8.46801,0.004 7.246,-0.087 10.64599,-2.855 11.87199,-9.987 1.653,-9.616 2.89101,-19.30701 4.789,-28.864 1.325,-6.72501 1.956,-14.29401 5.581,-19.69301 5.36399,-8.00301 8.78399,-16.089 8.94099,-25.523 0.213,-12.227 0.099,-24.458 0.051,-36.689005 -0.04,-9.234001 -4.133,-16.104004 -12.95701,-19.125 -15.016,-5.151001 -30.276,-5.143997 -45.24899,0.117996 -8.283,2.911003 -12.33301,9.482002 -12.45199,18.289002 -0.086,6.582031 -0.011,13.169027 -0.011,19.760027 z m 63.10801,-76.751 c 0.095,-15.99 -12.43601,-28.8719997 -28.256,-29.0569992 -15.454,-0.182 -28.817,12.9680002 -29.034,28.5760002 -0.21299,15.647001 12.657,28.630999 28.54401,28.793001 C 196.987,59.535999 209.54601,47.167 209.64101,31.059 Z"/>
          <path id="path150" style="fill:#69a95d;fill-opacity:1;fill-rule:evenodd;stroke:none" d="m 146.533,107.81 c 0,-6.59101 -0.075,-13.178004 0.012,-19.761004 0.11799,-8.806999 4.169,-15.377998 12.45199,-18.289001 14.972,-5.262002 30.232,-5.269997 45.24901,-0.117997 8.823,3.020996 12.91699,9.891999 12.957,19.125 0.047,12.231002 0.16201,24.462002 -0.051,36.688992 -0.15801,9.435 -3.577,17.521 -8.941,25.523 -3.625,5.399 -4.25599,12.968 -5.58099,19.69301 -1.897,9.557 -3.136,19.248 -4.789,28.864 -1.22701,7.13099 -4.62601,9.89999 -11.872,9.98699 -2.824,0.027 -5.64799,0.035 -8.468,-0.004 -7.30499,-0.095 -10.38899,-2.789 -11.64399,-10.152 -2.24401,-13.123 -4.25101,-26.29199 -6.855,-39.34399 -0.769,-3.834 -2.77699,-7.62801 -4.985,-10.922 -4.528,-6.75999 -7.23,-13.998 -7.41499,-22.10299 -0.142,-6.394 -0.028,-12.795 -0.028,-19.189 -0.017,9.8e-4 -0.029,9.8e-4 -0.041,9.8e-4 z"/>
          <path id="path152" style="fill:#69a95d;fill-opacity:1;fill-rule:evenodd;stroke:none" d="m 209.64101,31.059 c -0.095,16.108 -12.653,28.476999 -28.74601,28.312002 -15.88699,-0.161999 -28.757,-13.146 -28.544,-28.792999 0.21699,-15.607 13.58,-28.757 29.03399,-28.5760003 C 197.205,2.187 209.735,15.069 209.64101,31.059 Z"/>
          <path id="path154" style="fill:#69a95d;fill-opacity:1;fill-rule:nonzero;stroke:none" d="m 3.03,107.81 c 0.012,0 0.024,0 0.04,0 0,6.394 -0.118,12.795 0.028,19.18899 0.185,8.105 2.8829999,15.343 7.411,22.103 2.212,3.29401 4.22,7.088 4.988999,10.922 2.599001,13.05099 4.611,26.22101 6.855,39.34399 1.253999,7.364 4.339,10.058 11.643999,10.15201 2.82,0.039 5.644001,0.031 8.467998,0.004 7.245999,-0.087 10.646,-2.855 11.872002,-9.987 1.653,-9.616 2.890999,-19.30701 4.789001,-28.864 1.325001,-6.72501 1.956002,-14.29401 5.577004,-19.69301 5.363998,-8.00301 8.788002,-16.089 8.945,-25.523 0.212997,-12.227 0.099,-24.458 0.047,-36.689005 C 73.659003,79.533974 69.561,72.663971 60.742004,69.642975 45.726002,64.491974 30.466,64.498978 15.493,69.760971 7.211,72.669998 3.1559999,79.241997 3.0420001,88.049004 2.9549999,94.632004 3.03,101.219 3.03,107.81 Z M 66.138,31.059 C 66.233002,15.069 53.702,2.1870003 37.882,2.0020008 22.427999,1.8199999 9.0640001,14.97 8.8479996,30.577999 8.6309996,46.224998 21.504999,59.209 37.391998,59.370998 53.484001,59.535999 66.042999,47.167 66.138,31.059 Z"/>
          <path id="path156" style="fill:#69a95d;fill-opacity:1;fill-rule:evenodd;stroke:none" d="m 3.03,107.81 c 0,-6.59101 -0.075,-13.178004 0.012,-19.761004 0.1139999,-8.806999 4.169,-15.378998 12.452,-18.288994 14.972,-5.262001 30.232002,-5.269997 45.249,-0.117996 8.818996,3.021004 12.917004,9.891998 12.952999,19.125 0.051,12.231004 0.166001,24.461994 -0.047,36.689004 -0.157997,9.435 -3.582001,17.52099 -8.945,25.52299 -3.620998,5.39901 -4.251999,12.96801 -5.576999,19.693 -1.897,9.557 -3.136002,19.248 -4.789002,28.864 -1.227001,7.13099 -4.625999,9.89999 -11.871998,9.98699 -2.824001,0.027 -5.647998,0.035 -8.468002,-0.004 -7.305,-0.095 -10.389,-2.789 -11.644001,-10.152 C 20.110001,186.244 18.098,173.07501 15.499001,160.02301 14.73,156.18901 12.722,152.395 10.51,149.10101 c -4.5279996,-6.75999 -7.2259996,-13.998 -7.4109995,-22.10299 -0.146,-6.394 -0.028,-12.795 -0.028,-19.189 -0.017,9.8e-4 -0.029,9.8e-4 -0.041,9.8e-4 z"/>
          <path id="path158" style="fill:#69a95d;fill-opacity:1;fill-rule:evenodd;stroke:none" d="M 66.138,31.059 C 66.042999,47.167 53.485001,59.535999 37.391998,59.371002 21.504999,59.209 8.6309996,46.224998 8.8479996,30.577999 9.0640001,14.97 22.427999,1.8199999 37.881001,2.0020001 53.702,2.187 66.232002,15.069 66.138,31.059 Z"/>
          <path id="path160" style="fill:#69a95d;fill-opacity:1;fill-rule:nonzero;stroke:none" d="m 284.19,107.81 c 0.016,0 0.031,0 0.043,0 0,6.394 -0.11401,12.795 0.032,19.18899 0.18201,8.105 2.879,15.343 7.40702,22.103 2.21701,3.29401 4.224,7.088 4.98901,10.922 2.60401,13.05099 4.60999,26.22101 6.85501,39.34399 1.258,7.364 4.33801,10.058 11.64301,10.15201 2.824,0.039 5.64801,0.031 8.47299,0.004 7.241,-0.087 10.646,-2.855 11.86801,-9.987 1.65201,-9.616 2.892,-19.30701 4.788,-28.864 1.32901,-6.72501 1.96099,-14.29401 5.58099,-19.69301 5.36401,-8.00301 8.78,-16.089 8.94101,-25.523 0.21399,-12.227 0.10599,-24.458 0.052,-36.689005 -0.039,-9.234001 -4.134,-16.104004 -12.953,-19.125 -15.01599,-5.151001 -30.27899,-5.143997 -45.25202,0.117996 -8.28299,2.911003 -12.33801,9.482002 -12.45199,18.289002 C 284.11899,94.632004 284.19,101.219 284.19,107.81 Z M 347.298,31.059 C 347.397,15.069 334.866,2.1870003 319.04599,2.0020008 303.59598,1.8200008 290.22998,14.970001 290.01199,30.578001 289.79898,46.225002 302.66498,59.209 318.55298,59.371002 334.64899,59.535999 347.207,47.167 347.298,31.059 Z"/>
          <path id="path162" style="fill:#69a95d;fill-opacity:1;fill-rule:evenodd;stroke:none" d="m 284.19,107.81 c 0,-6.59101 -0.071,-13.178004 0.016,-19.761004 0.11402,-8.806999 4.16901,-15.377998 12.452,-18.289001 14.97299,-5.262002 30.23599,-5.269997 45.25198,-0.117997 8.819,3.020996 12.914,9.891999 12.95301,19.125 0.055,12.231002 0.16198,24.462002 -0.052,36.688992 -0.16101,9.435 -3.57699,17.521 -8.94101,25.523 -3.61999,5.399 -4.25201,12.968 -5.58099,19.69301 -1.896,9.557 -3.13599,19.248 -4.78799,28.864 -1.223,7.13099 -4.62702,9.89999 -11.86801,9.98699 -2.82401,0.027 -5.64802,0.035 -8.473,-0.004 -7.30499,-0.095 -10.38501,-2.789 -11.643,-10.152 -2.245,-13.123 -4.25202,-26.29199 -6.85501,-39.34399 -0.76599,-3.834 -2.77201,-7.62801 -4.98902,-10.922 -4.52798,-6.75999 -7.22601,-13.998 -7.40701,-22.10299 -0.146,-6.394 -0.032,-12.795 -0.032,-19.189 -0.0119,9.8e-4 -0.0279,9.8e-4 -0.0439,9.8e-4 z"/>
          <path id="path164" style="fill:#69a95d;fill-opacity:1;fill-rule:evenodd;stroke:none" d="m 347.298,31.059 c -0.091,16.108 -12.64801,28.476999 -28.74499,28.312002 -15.888,-0.161999 -28.754,-13.146 -28.54099,-28.792999 0.21799,-15.607 13.58399,-28.757 29.034,-28.5760003 C 334.866,2.187 347.396,15.069 347.298,31.059 Z"/>
        </g>
        <g transform="translate(5453,2835)" id="g166">
          <g id="g168"/>
          <g id="g184">
            <g id="g182" opacity="0.498" clip-path="url(#clipPath172)">
              <g id="g180" transform="matrix(1.0890124,0,0,1.0894624,-458.01758,-1.9020996)">
                <path id="path174" style="fill:#555555;fill-opacity:1;fill-rule:nonzero;stroke:none" d="m 421.35501,107.81 c 0.012,0 0.023,0 0.039,0 0,6.394 -0.11801,12.795 0.027,19.18899 0.18601,8.105 2.884,15.343 7.41101,22.103 2.21301,3.29401 4.22101,7.088 4.98901,10.922 2.60001,13.05099 4.611,26.22101 6.85502,39.34399 1.25399,7.364 4.33899,10.058 11.64401,10.15201 2.82001,0.039 5.64499,0.031 8.46799,0.004 7.246,-0.087 10.64599,-2.855 11.872,-9.987 1.65302,-9.616 2.892,-19.30701 4.78901,-28.864 1.32501,-6.72501 1.95599,-14.29401 5.57699,-19.69301 5.36402,-8.00301 8.78699,-16.089 8.94501,-25.523 0.21301,-12.227 0.099,-24.458 0.047,-36.689005 -0.035,-9.234001 -4.133,-16.104004 -12.952,-19.125 -15.01599,-5.151001 -30.276,-5.143997 -45.24899,0.117996 -8.28202,2.911003 -12.33701,9.482002 -12.45099,18.289002 -0.0861,6.582031 -0.0111,13.169027 -0.0111,19.760027 z m 63.108,-76.751 C 484.55801,15.069 472.026,2.1870003 456.20602,2.0020008 440.75299,1.8199999 427.39001,14.97 427.173,30.577999 426.95599,46.224998 439.83002,59.209 455.71701,59.370998 471.81,59.535999 484.36801,47.167 484.46301,31.059 Z"/>
                <path id="path176" style="fill:#555555;fill-opacity:1;fill-rule:evenodd;stroke:none" d="m 421.35501,107.81 c 0,-6.59101 -0.075,-13.178004 0.012,-19.761004 0.11402,-8.806999 4.16901,-15.377998 12.45099,-18.289001 14.973,-5.262002 30.233,-5.269997 45.249,-0.117997 8.819,3.020996 12.91699,9.891999 12.95199,19.125 0.052,12.231002 0.16599,24.462002 -0.047,36.688992 -0.15798,9.435 -3.58099,17.521 -8.945,25.523 -3.621,5.399 -4.25202,12.968 -5.577,19.69301 -1.897,9.557 -3.13598,19.248 -4.789,28.864 -1.22699,7.13099 -4.62601,9.89999 -11.87201,9.98699 -2.823,0.027 -5.647,0.035 -8.46799,-0.004 -7.30499,-0.095 -10.39001,-2.789 -11.64401,-10.152 -2.24399,-13.123 -4.25601,-26.29199 -6.85501,-39.34399 -0.76901,-3.834 -2.776,-7.62801 -4.98901,-10.922 -4.52701,-6.75999 -7.22602,-13.998 -7.41101,-22.10299 -0.146,-6.394 -0.027,-12.795 -0.027,-19.189 -0.0159,9.8e-4 -0.0279,9.8e-4 -0.0399,9.8e-4 z"/>
                <path id="path178" style="fill:#555555;fill-opacity:1;fill-rule:evenodd;stroke:none" d="m 484.46301,31.059 c -0.095,16.108 -12.65301,28.476999 -28.746,28.312002 -15.88699,-0.161999 -28.76099,-13.146 -28.54401,-28.792999 0.21701,-15.607 13.57999,-28.757 29.03299,-28.5760003 C 472.026,2.187 484.55801,15.069 484.46301,31.059 Z"/>
              </g>
            </g>
          </g>
        </g>
        <g transform="translate(5153,2835)" id="g186">
          <g id="g188"/>
          <g id="g204">
            <g id="g202" opacity="0.498" clip-path="url(#clipPath192)">
              <g id="g200" transform="matrix(1.0890124,0,0,1.0894624,-158.01758,-1.9020996)">
                <path id="path194" style="fill:#555555;fill-opacity:1;fill-rule:nonzero;stroke:none" d="m 146.533,107.81 c 0.012,0 0.024,0 0.04,0 0,6.394 -0.114,12.795 0.028,19.18899 0.18499,8.105 2.88699,15.343 7.41499,22.103 2.20799,3.29401 4.216,7.088 4.985,10.922 2.60401,13.05099 4.61101,26.22101 6.855,39.34399 1.25399,7.364 4.339,10.058 11.64399,10.15201 2.82001,0.039 5.644,0.031 8.46801,0.004 7.246,-0.087 10.64599,-2.855 11.87199,-9.987 1.653,-9.616 2.89101,-19.30701 4.789,-28.864 1.325,-6.72501 1.956,-14.29401 5.581,-19.69301 5.36399,-8.00301 8.78399,-16.089 8.94099,-25.523 0.213,-12.227 0.099,-24.458 0.051,-36.689005 -0.04,-9.234001 -4.133,-16.104004 -12.95701,-19.125 -15.016,-5.151001 -30.276,-5.143997 -45.24899,0.117996 -8.283,2.911003 -12.33301,9.482002 -12.45199,18.289002 -0.086,6.582031 -0.011,13.169027 -0.011,19.760027 z m 63.10801,-76.751 c 0.095,-15.99 -12.43601,-28.8719997 -28.256,-29.0569992 -15.454,-0.182 -28.817,12.9680002 -29.034,28.5760002 -0.21299,15.647001 12.657,28.630999 28.54401,28.793001 C 196.987,59.535999 209.54601,47.167 209.64101,31.059 Z"/>
                <path id="path196" style="fill:#555555;fill-opacity:1;fill-rule:evenodd;stroke:none" d="m 146.533,107.81 c 0,-6.59101 -0.075,-13.178004 0.012,-19.761004 0.11799,-8.806999 4.169,-15.377998 12.45199,-18.289001 14.972,-5.262002 30.232,-5.269997 45.24901,-0.117997 8.823,3.020996 12.91699,9.891999 12.957,19.125 0.047,12.231002 0.16201,24.462002 -0.051,36.688992 -0.15801,9.435 -3.577,17.521 -8.941,25.523 -3.625,5.399 -4.25599,12.968 -5.58099,19.69301 -1.897,9.557 -3.136,19.248 -4.789,28.864 -1.22701,7.13099 -4.62601,9.89999 -11.872,9.98699 -2.824,0.027 -5.64799,0.035 -8.468,-0.004 -7.30499,-0.095 -10.38899,-2.789 -11.64399,-10.152 -2.24401,-13.123 -4.25101,-26.29199 -6.855,-39.34399 -0.769,-3.834 -2.77699,-7.62801 -4.985,-10.922 -4.528,-6.75999 -7.23,-13.998 -7.41499,-22.10299 -0.142,-6.394 -0.028,-12.795 -0.028,-19.189 -0.017,9.8e-4 -0.029,9.8e-4 -0.041,9.8e-4 z"/>
                <path id="path198" style="fill:#555555;fill-opacity:1;fill-rule:evenodd;stroke:none" d="m 209.64101,31.059 c -0.095,16.108 -12.653,28.476999 -28.74601,28.312002 -15.88699,-0.161999 -28.757,-13.146 -28.544,-28.792999 0.21699,-15.607 13.58,-28.757 29.03399,-28.5760003 C 197.205,2.187 209.735,15.069 209.64101,31.059 Z"/>
              </g>
            </g>
          </g>
        </g>
        <g transform="translate(4997,2835)" id="g206">
          <g id="g208"/>
          <g id="g224">
            <g id="g222" opacity="0.498" clip-path="url(#clipPath212)">
              <g id="g220" transform="matrix(1.0890124,0,0,1.0894624,-2.0175781,-1.9020996)">
                <path id="path214" style="fill:#555555;fill-opacity:1;fill-rule:nonzero;stroke:none" d="m 3.03,107.81 c 0.012,0 0.024,0 0.04,0 0,6.394 -0.118,12.795 0.028,19.18899 0.185,8.105 2.8829999,15.343 7.411,22.103 2.212,3.29401 4.22,7.088 4.988999,10.922 2.599001,13.05099 4.611,26.22101 6.855,39.34399 1.253999,7.364 4.339,10.058 11.643999,10.15201 2.82,0.039 5.644001,0.031 8.467998,0.004 7.245999,-0.087 10.646,-2.855 11.872002,-9.987 1.653,-9.616 2.890999,-19.30701 4.789001,-28.864 1.325001,-6.72501 1.956002,-14.29401 5.577004,-19.69301 5.363998,-8.00301 8.788002,-16.089 8.945,-25.523 0.212997,-12.227 0.099,-24.458 0.047,-36.689005 C 73.659003,79.533974 69.561,72.663971 60.742004,69.642975 45.726002,64.491974 30.466,64.498978 15.493,69.760971 7.211,72.669998 3.1559999,79.241997 3.0420001,88.049004 2.9549999,94.632004 3.03,101.219 3.03,107.81 Z M 66.138,31.059 C 66.233002,15.069 53.702,2.1870003 37.882,2.0020008 22.427999,1.8199999 9.0640001,14.97 8.8479996,30.577999 8.6309996,46.224998 21.504999,59.209 37.391998,59.370998 53.484001,59.535999 66.042999,47.167 66.138,31.059 Z"/>
                <path id="path216" style="fill:#555555;fill-opacity:1;fill-rule:evenodd;stroke:none" d="m 3.03,107.81 c 0,-6.59101 -0.075,-13.178004 0.012,-19.761004 0.1139999,-8.806999 4.169,-15.378998 12.452,-18.288994 14.972,-5.262001 30.232002,-5.269997 45.249,-0.117996 8.818996,3.021004 12.917004,9.891998 12.952999,19.125 0.051,12.231004 0.166001,24.461994 -0.047,36.689004 -0.157997,9.435 -3.582001,17.52099 -8.945,25.52299 -3.620998,5.39901 -4.251999,12.96801 -5.576999,19.693 -1.897,9.557 -3.136002,19.248 -4.789002,28.864 -1.227001,7.13099 -4.625999,9.89999 -11.871998,9.98699 -2.824001,0.027 -5.647998,0.035 -8.468002,-0.004 -7.305,-0.095 -10.389,-2.789 -11.644001,-10.152 C 20.110001,186.244 18.098,173.07501 15.499001,160.02301 14.73,156.18901 12.722,152.395 10.51,149.10101 c -4.5279996,-6.75999 -7.2259996,-13.998 -7.4109995,-22.10299 -0.146,-6.394 -0.028,-12.795 -0.028,-19.189 -0.017,9.8e-4 -0.029,9.8e-4 -0.041,9.8e-4 z"/>
                <path id="path218" style="fill:#555555;fill-opacity:1;fill-rule:evenodd;stroke:none" d="M 66.138,31.059 C 66.042999,47.167 53.485001,59.535999 37.391998,59.371002 21.504999,59.209 8.6309996,46.224998 8.8479996,30.577999 9.0640001,14.97 22.427999,1.8199999 37.881001,2.0020001 53.702,2.187 66.232002,15.069 66.138,31.059 Z"/>
              </g>
            </g>
          </g>
        </g>
        <g transform="translate(5304,2835)" id="g226">
          <g id="g228"/>
          <g id="g244">
            <g id="g242" opacity="0.498" clip-path="url(#clipPath232)">
              <g id="g240" transform="matrix(1.0890124,0,0,1.0894624,-309.01758,-1.9020996)">
                <path id="path234" style="fill:#555555;fill-opacity:1;fill-rule:nonzero;stroke:none" d="m 284.19,107.81 c 0.016,0 0.031,0 0.043,0 0,6.394 -0.11401,12.795 0.032,19.18899 0.18201,8.105 2.879,15.343 7.40702,22.103 2.21701,3.29401 4.224,7.088 4.98901,10.922 2.60401,13.05099 4.60999,26.22101 6.85501,39.34399 1.258,7.364 4.33801,10.058 11.64301,10.15201 2.824,0.039 5.64801,0.031 8.47299,0.004 7.241,-0.087 10.646,-2.855 11.86801,-9.987 1.65201,-9.616 2.892,-19.30701 4.788,-28.864 1.32901,-6.72501 1.96099,-14.29401 5.58099,-19.69301 5.36401,-8.00301 8.78,-16.089 8.94101,-25.523 0.21399,-12.227 0.10599,-24.458 0.052,-36.689005 -0.039,-9.234001 -4.134,-16.104004 -12.953,-19.125 -15.01599,-5.151001 -30.27899,-5.143997 -45.25202,0.117996 -8.28299,2.911003 -12.33801,9.482002 -12.45199,18.289002 C 284.11899,94.632004 284.19,101.219 284.19,107.81 Z M 347.298,31.059 C 347.397,15.069 334.866,2.1870003 319.04599,2.0020008 303.59598,1.8200008 290.22998,14.970001 290.01199,30.578001 289.79898,46.225002 302.66498,59.209 318.55298,59.371002 334.64899,59.535999 347.207,47.167 347.298,31.059 Z"/>
                <path id="path236" style="fill:#555555;fill-opacity:1;fill-rule:evenodd;stroke:none" d="m 284.19,107.81 c 0,-6.59101 -0.071,-13.178004 0.016,-19.761004 0.11402,-8.806999 4.16901,-15.377998 12.452,-18.289001 14.97299,-5.262002 30.23599,-5.269997 45.25198,-0.117997 8.819,3.020996 12.914,9.891999 12.95301,19.125 0.055,12.231002 0.16198,24.462002 -0.052,36.688992 -0.16101,9.435 -3.57699,17.521 -8.94101,25.523 -3.61999,5.399 -4.25201,12.968 -5.58099,19.69301 -1.896,9.557 -3.13599,19.248 -4.78799,28.864 -1.223,7.13099 -4.62702,9.89999 -11.86801,9.98699 -2.82401,0.027 -5.64802,0.035 -8.473,-0.004 -7.30499,-0.095 -10.38501,-2.789 -11.643,-10.152 -2.245,-13.123 -4.25202,-26.29199 -6.85501,-39.34399 -0.76599,-3.834 -2.77201,-7.62801 -4.98902,-10.922 -4.52798,-6.75999 -7.22601,-13.998 -7.40701,-22.10299 -0.146,-6.394 -0.032,-12.795 -0.032,-19.189 -0.0119,9.8e-4 -0.0279,9.8e-4 -0.0439,9.8e-4 z"/>
                <path id="path238" style="fill:#555555;fill-opacity:1;fill-rule:evenodd;stroke:none" d="m 347.298,31.059 c -0.091,16.108 -12.64801,28.476999 -28.74499,28.312002 -15.888,-0.161999 -28.754,-13.146 -28.54099,-28.792999 0.21799,-15.607 13.58399,-28.757 29.034,-28.5760003 C 334.866,2.187 347.396,15.069 347.298,31.059 Z"/>
              </g>
            </g>
          </g>
        </g>
        <g transform="matrix(1.0890124,0,0,1.0894624,4994.9824,2833.0979)" id="g246">
          <path id="path248" style="fill:#69a95d;fill-opacity:1;fill-rule:nonzero;stroke:none" d="m 369.21201,170.14799 c 0.013,0 0.028,0 0.044,0 0,7.19401 -0.13,14.396 0.035,21.59 0.20498,9.119 3.242,17.26 8.33801,24.86501 2.48901,3.707 4.74499,7.975 5.613,12.28999 2.92301,14.681 5.18302,29.49501 7.70701,44.25801 1.41598,8.28699 4.88299,11.31601 13.09899,11.42301 3.17499,0.043 6.35102,0.035 9.529,0.004 8.14801,-0.095 11.979,-3.211 13.35501,-11.233 1.85699,-10.81799 3.254,-21.71699 5.388,-32.47299 1.48999,-7.56101 2.20001,-16.08 6.27499,-22.15399 6.034,-9.00501 9.884,-18.101 10.06201,-28.71401 0.23999,-13.757 0.11402,-27.515 0.055,-41.276 -0.043,-10.38499 -4.65,-18.116 -14.573,-21.516 -16.89002,-5.79 -34.06201,-5.786 -50.90399,0.13401 -9.32001,3.273 -13.87601,10.665 -14.01001,20.573 -0.095,7.40698 -0.013,14.82198 -0.013,22.22897 z M 440.20801,83.805 C 440.315,65.815002 426.21899,51.324001 408.418,51.118999 391.03601,50.914001 376,65.705002 375.75601,83.264999 375.51602,100.868 389.99402,115.473 407.87,115.655 c 18.104,0.189 32.23199,-13.726 32.33801,-31.85 z"/>
          <path id="path250" style="fill:#69a95d;fill-opacity:1;fill-rule:evenodd;stroke:none" d="m 369.21201,170.14799 c 0,-7.40699 -0.082,-14.82299 0.013,-22.22999 0.134,-9.90801 4.68899,-17.299 14.01001,-20.573 16.84201,-5.92 34.01498,-5.92399 50.90399,-0.134 9.923,3.39999 14.53,11.13 14.573,21.516 0.06,13.76101 0.186,27.519 -0.055,41.27601 -0.17801,10.61399 -4.02701,19.709 -10.06201,28.714 -4.07501,6.07401 -4.785,14.59399 -6.27499,22.15399 -2.13401,10.756 -3.53,21.65399 -5.388,32.47299 -1.37702,8.02201 -5.207,11.13901 -13.35501,11.23301 -3.17899,0.031 -6.35401,0.039 -9.529,-0.004 -8.216,-0.10599 -11.68301,-3.13599 -13.09899,-11.42301 -2.52399,-14.763 -4.784,-29.57699 -7.70701,-44.25799 -0.86801,-4.315 -3.12399,-8.58301 -5.613,-12.28999 -5.09601,-7.60401 -8.133,-15.74601 -8.33801,-24.86501 -0.16501,-7.194 -0.035,-14.396 -0.035,-21.59 -0.016,9.9e-4 -0.031,9.9e-4 -0.044,9.9e-4 z"/>
          <path id="path252" style="fill:#69a95d;fill-opacity:1;fill-rule:evenodd;stroke:none" d="m 440.20801,83.805 c -0.10599,18.124 -14.23401,32.039 -32.33801,31.85 -17.87601,-0.182 -32.35401,-14.787 -32.11402,-32.390001 0.24399,-17.559997 15.28,-32.351001 32.66199,-32.146 17.80102,0.205002 31.89703,14.696003 31.79004,32.686001 z"/>
          <path id="path254" style="fill:#69a95d;fill-opacity:1;fill-rule:nonzero;stroke:none" d="m 211.828,170.14799 c 0.016,0 0.032,0 0.047,0 0,7.19401 -0.13,14.396 0.032,21.59 0.205,9.119 3.242,17.26 8.338,24.86501 2.49299,3.707 4.74899,7.975 5.60899,12.28999 2.931,14.681 5.19,29.49501 7.71499,44.25801 1.41201,8.28699 4.883,11.31601 13.099,11.42301 3.17501,0.043 6.35401,0.035 9.52901,0.004 8.14801,-0.095 11.979,-3.211 13.35101,-11.233 1.862,-10.81799 3.254,-21.71699 5.388,-32.47299 1.495,-7.56101 2.20902,-16.08 6.279,-22.15399 6.035,-9.00501 9.87701,-18.101 10.05899,-28.71401 0.23999,-13.757 0.11801,-27.515 0.059,-41.276 -0.043,-10.38499 -4.65,-18.116 -14.57401,-21.516 -16.88901,-5.79 -34.06199,-5.786 -50.90399,0.13401 -9.32001,3.273 -13.884,10.665 -14.00999,20.573 -0.099,7.40698 -0.017,14.82198 -0.017,22.22897 z M 282.82401,83.805 c 0.10998,-17.989998 -13.986,-32.480999 -31.786,-32.686001 -17.382,-0.205001 -32.418,14.586003 -32.662,32.146 -0.241,17.603001 14.23399,32.208001 32.106,32.390001 18.11198,0.189 32.23997,-13.726 32.342,-31.85 z"/>
          <path id="path256" style="fill:#69a95d;fill-opacity:1;fill-rule:evenodd;stroke:none" d="m 211.828,170.14799 c 0,-7.40699 -0.083,-14.82299 0.016,-22.22999 0.12601,-9.90801 4.68899,-17.299 14.00999,-20.573 16.842,-5.92 34.01502,-5.92399 50.904,-0.134 9.92401,3.39999 14.531,11.13 14.574,21.516 0.06,13.76101 0.18201,27.519 -0.059,41.27601 -0.18201,10.61399 -4.02301,19.709 -10.05899,28.714 -4.07001,6.07401 -4.784,14.59399 -6.27899,22.15399 -2.134,10.756 -3.525,21.65399 -5.388,32.47299 -1.37201,8.02201 -5.202,11.13901 -13.35102,11.23301 -3.17599,0.031 -6.354,0.039 -9.529,-0.004 -8.21601,-0.10599 -11.687,-3.13599 -13.099,-11.42301 -2.524,-14.763 -4.784,-29.57699 -7.715,-44.25799 -0.86,-4.315 -3.116,-8.58301 -5.60899,-12.28999 -5.09599,-7.60401 -8.133,-15.74601 -8.338,-24.86501 -0.162,-7.194 -0.032,-14.396 -0.032,-21.59 -0.014,9.9e-4 -0.03,9.9e-4 -0.046,9.9e-4 z"/>
          <path id="path258" style="fill:#69a95d;fill-opacity:1;fill-rule:evenodd;stroke:none" d="m 282.82401,83.805 c -0.103,18.124 -14.23002,32.039 -32.342,31.85 -17.87199,-0.182 -32.347,-14.787 -32.106,-32.390001 0.244,-17.559997 15.28,-32.351001 32.662,-32.146 17.8,0.205002 31.89699,14.696003 31.786,32.686001 z"/>
          <path id="path260" style="fill:#69a95d;fill-opacity:1;fill-rule:nonzero;stroke:none" d="m 60.040001,170.14799 c 0.012,0 0.023,0 0.043,0 0,7.19401 -0.130001,14.396 0.032,21.59 0.208999,9.119 3.245998,17.26 8.341999,24.86501 2.485,3.707 4.740997,7.975 5.608001,12.28999 2.927002,14.681 5.186997,29.49501 7.710999,44.25801 1.412003,8.28699 4.878998,11.31601 13.098999,11.42301 3.170998,0.043 6.350001,0.035 9.529001,0.004 8.148,-0.095 11.975,-3.211 13.355,-11.233 1.858,-10.81799 3.25,-21.71699 5.388,-32.47299 1.491,-7.56101 2.201,-16.08 6.275,-22.15399 6.035,-9.00501 9.88,-18.101 10.06199,-28.71401 0.237,-13.757 0.11,-27.515 0.056,-41.276 -0.043,-10.38499 -4.64999,-18.116 -14.578,-21.516 -16.889,-5.79 -34.058999,-5.786 -50.904,0.13401 -9.316002,3.273 -13.875999,10.665 -14.006,20.573 C 59.953,155.32601 60.04,162.74101 60.04,170.148 Z M 131.03599,83.805 c 0.103,-17.989998 -13.994,-32.480999 -31.790995,-32.686001 -17.386001,-0.205001 -32.417,14.586003 -32.662002,32.146 -0.240998,17.603001 14.238998,32.208001 32.11,32.390001 18.104007,0.189 32.232997,-13.726 32.342997,-31.85 z"/>
          <path id="path262" style="fill:#69a95d;fill-opacity:1;fill-rule:evenodd;stroke:none" d="m 60.040001,170.14799 c 0,-7.40699 -0.087,-14.82299 0.012,-22.22999 0.130001,-9.90801 4.689003,-17.299 14.005997,-20.573 16.846,-5.92 34.015002,-5.92399 50.904002,-0.134 9.928,3.39999 14.53499,11.13 14.57799,21.516 0.055,13.76101 0.181,27.519 -0.056,41.27601 -0.181,10.61399 -4.02699,19.709 -10.06199,28.714 -4.074,6.07401 -4.784,14.59399 -6.275,22.15399 -2.138,10.756 -3.53,21.65399 -5.388,32.47299 -1.38,8.02201 -5.20701,11.13901 -13.35501,11.23301 -3.179,0.031 -6.358001,0.039 -9.528999,-0.004 -8.22,-0.10599 -11.687003,-3.13599 -13.098998,-11.42301 C 79.251991,258.38699 76.991997,243.573 74.064995,228.892 73.196991,224.577 70.940994,220.30899 68.456993,216.60201 63.360992,208.998 60.323994,200.856 60.114994,191.737 c -0.161999,-7.194 -0.032,-14.396 -0.032,-21.59 -0.01999,9.9e-4 -0.031,9.9e-4 -0.04299,9.9e-4 z"/>
          <path id="path264" style="fill:#69a95d;fill-opacity:1;fill-rule:evenodd;stroke:none" d="m 131.03599,83.805 c -0.11,18.124 -14.23899,32.039 -32.342997,31.85 -17.871002,-0.182 -32.350998,-14.787 -32.11,-32.390001 0.245002,-17.559997 15.276001,-32.351001 32.662002,-32.146 C 117.042,51.324001 131.13901,65.815002 131.03599,83.805 Z"/>
        </g>
        <g transform="translate(5396,2888)" id="g266">
          <g id="g268"/>
          <g id="g284">
            <g id="g282" opacity="0.298" clip-path="url(#clipPath272)">
              <g id="g280" transform="matrix(1.0890124,0,0,1.0894624,-401.01758,-54.9021)">
                <path id="path274" style="fill:#555555;fill-opacity:1;fill-rule:nonzero;stroke:none" d="m 369.21201,170.14799 c 0.013,0 0.028,0 0.044,0 0,7.19401 -0.13,14.396 0.035,21.59 0.20498,9.119 3.242,17.26 8.33801,24.86501 2.48901,3.707 4.74499,7.975 5.613,12.28999 2.92301,14.681 5.18302,29.49501 7.70701,44.25801 1.41598,8.28699 4.88299,11.31601 13.09899,11.42301 3.17499,0.043 6.35102,0.035 9.529,0.004 8.14801,-0.095 11.979,-3.211 13.35501,-11.233 1.85699,-10.81799 3.254,-21.71699 5.388,-32.47299 1.48999,-7.56101 2.20001,-16.08 6.27499,-22.15399 6.034,-9.00501 9.884,-18.101 10.06201,-28.71401 0.23999,-13.757 0.11402,-27.515 0.055,-41.276 -0.043,-10.38499 -4.65,-18.116 -14.573,-21.516 -16.89002,-5.79 -34.06201,-5.786 -50.90399,0.13401 -9.32001,3.273 -13.87601,10.665 -14.01001,20.573 -0.095,7.40698 -0.013,14.82198 -0.013,22.22897 z M 440.20801,83.805 C 440.315,65.815002 426.21899,51.324001 408.418,51.118999 391.03601,50.914001 376,65.705002 375.75601,83.264999 375.51602,100.868 389.99402,115.473 407.87,115.655 c 18.104,0.189 32.23199,-13.726 32.33801,-31.85 z"/>
                <path id="path276" style="fill:#555555;fill-opacity:1;fill-rule:evenodd;stroke:none" d="m 369.21201,170.14799 c 0,-7.40699 -0.082,-14.82299 0.013,-22.22999 0.134,-9.90801 4.68899,-17.299 14.01001,-20.573 16.84201,-5.92 34.01498,-5.92399 50.90399,-0.134 9.923,3.39999 14.53,11.13 14.573,21.516 0.06,13.76101 0.186,27.519 -0.055,41.27601 -0.17801,10.61399 -4.02701,19.709 -10.06201,28.714 -4.07501,6.07401 -4.785,14.59399 -6.27499,22.15399 -2.13401,10.756 -3.53,21.65399 -5.388,32.47299 -1.37702,8.02201 -5.207,11.13901 -13.35501,11.23301 -3.17899,0.031 -6.35401,0.039 -9.529,-0.004 -8.216,-0.10599 -11.68301,-3.13599 -13.09899,-11.42301 -2.52399,-14.763 -4.784,-29.57699 -7.70701,-44.25799 -0.86801,-4.315 -3.12399,-8.58301 -5.613,-12.28999 -5.09601,-7.60401 -8.133,-15.74601 -8.33801,-24.86501 -0.16501,-7.194 -0.035,-14.396 -0.035,-21.59 -0.016,9.9e-4 -0.031,9.9e-4 -0.044,9.9e-4 z"/>
                <path id="path278" style="fill:#555555;fill-opacity:1;fill-rule:evenodd;stroke:none" d="m 440.20801,83.805 c -0.10599,18.124 -14.23401,32.039 -32.33801,31.85 -17.87601,-0.182 -32.35401,-14.787 -32.11402,-32.390001 0.24399,-17.559997 15.28,-32.351001 32.66199,-32.146 17.80102,0.205002 31.89703,14.696003 31.79004,32.686001 z"/>
              </g>
            </g>
          </g>
        </g>
        <g transform="translate(5224,2888)" id="g286">
          <g id="g288"/>
          <g id="g304">
            <g id="g302" opacity="0.298" clip-path="url(#clipPath292)">
              <g id="g300" transform="matrix(1.0890124,0,0,1.0894624,-229.01758,-54.9021)">
                <path id="path294" style="fill:#555555;fill-opacity:1;fill-rule:nonzero;stroke:none" d="m 211.828,170.14799 c 0.016,0 0.032,0 0.047,0 0,7.19401 -0.13,14.396 0.032,21.59 0.205,9.119 3.242,17.26 8.338,24.86501 2.49299,3.707 4.74899,7.975 5.60899,12.28999 2.931,14.681 5.19,29.49501 7.71499,44.25801 1.41201,8.28699 4.883,11.31601 13.099,11.42301 3.17501,0.043 6.35401,0.035 9.52901,0.004 8.14801,-0.095 11.979,-3.211 13.35101,-11.233 1.862,-10.81799 3.254,-21.71699 5.388,-32.47299 1.495,-7.56101 2.20902,-16.08 6.279,-22.15399 6.035,-9.00501 9.87701,-18.101 10.05899,-28.71401 0.23999,-13.757 0.11801,-27.515 0.059,-41.276 -0.043,-10.38499 -4.65,-18.116 -14.57401,-21.516 -16.88901,-5.79 -34.06199,-5.786 -50.90399,0.13401 -9.32001,3.273 -13.884,10.665 -14.00999,20.573 -0.099,7.40698 -0.017,14.82198 -0.017,22.22897 z M 282.82401,83.805 c 0.10998,-17.989998 -13.986,-32.480999 -31.786,-32.686001 -17.382,-0.205001 -32.418,14.586003 -32.662,32.146 -0.241,17.603001 14.23399,32.208001 32.106,32.390001 18.11198,0.189 32.23997,-13.726 32.342,-31.85 z"/>
                <path id="path296" style="fill:#555555;fill-opacity:1;fill-rule:evenodd;stroke:none" d="m 211.828,170.14799 c 0,-7.40699 -0.083,-14.82299 0.016,-22.22999 0.12601,-9.90801 4.68899,-17.299 14.00999,-20.573 16.842,-5.92 34.01502,-5.92399 50.904,-0.134 9.92401,3.39999 14.531,11.13 14.574,21.516 0.06,13.76101 0.18201,27.519 -0.059,41.27601 -0.18201,10.61399 -4.02301,19.709 -10.05899,28.714 -4.07001,6.07401 -4.784,14.59399 -6.27899,22.15399 -2.134,10.756 -3.525,21.65399 -5.388,32.47299 -1.37201,8.02201 -5.202,11.13901 -13.35102,11.23301 -3.17599,0.031 -6.354,0.039 -9.529,-0.004 -8.21601,-0.10599 -11.687,-3.13599 -13.099,-11.42301 -2.524,-14.763 -4.784,-29.57699 -7.715,-44.25799 -0.86,-4.315 -3.116,-8.58301 -5.60899,-12.28999 -5.09599,-7.60401 -8.133,-15.74601 -8.338,-24.86501 -0.162,-7.194 -0.032,-14.396 -0.032,-21.59 -0.014,9.9e-4 -0.03,9.9e-4 -0.046,9.9e-4 z"/>
                <path id="path298" style="fill:#555555;fill-opacity:1;fill-rule:evenodd;stroke:none" d="m 282.82401,83.805 c -0.103,18.124 -14.23002,32.039 -32.342,31.85 -17.87199,-0.182 -32.347,-14.787 -32.106,-32.390001 0.244,-17.559997 15.28,-32.351001 32.662,-32.146 17.8,0.205002 31.89699,14.696003 31.786,32.686001 z"/>
              </g>
            </g>
          </g>
        </g>
        <g transform="translate(5060,2888)" id="g306">
          <g id="g308"/>
          <g id="g324">
            <g id="g322" opacity="0.298" clip-path="url(#clipPath312)">
              <g id="g320" transform="matrix(1.0890124,0,0,1.0894624,-65.017578,-54.9021)">
                <path id="path314" style="fill:#555555;fill-opacity:1;fill-rule:nonzero;stroke:none" d="m 60.040001,170.14799 c 0.012,0 0.023,0 0.043,0 0,7.19401 -0.130001,14.396 0.032,21.59 0.208999,9.119 3.245998,17.26 8.341999,24.86501 2.485,3.707 4.740997,7.975 5.608001,12.28999 2.927002,14.681 5.186997,29.49501 7.710999,44.25801 1.412003,8.28699 4.878998,11.31601 13.098999,11.42301 3.170998,0.043 6.350001,0.035 9.529001,0.004 8.148,-0.095 11.975,-3.211 13.355,-11.233 1.858,-10.81799 3.25,-21.71699 5.388,-32.47299 1.491,-7.56101 2.201,-16.08 6.275,-22.15399 6.035,-9.00501 9.88,-18.101 10.06199,-28.71401 0.237,-13.757 0.11,-27.515 0.056,-41.276 -0.043,-10.38499 -4.64999,-18.116 -14.578,-21.516 -16.889,-5.79 -34.058999,-5.786 -50.904,0.13401 -9.316002,3.273 -13.875999,10.665 -14.006,20.573 C 59.953,155.32601 60.04,162.74101 60.04,170.148 Z M 131.03599,83.805 c 0.103,-17.989998 -13.994,-32.480999 -31.790995,-32.686001 -17.386001,-0.205001 -32.417,14.586003 -32.662002,32.146 -0.240998,17.603001 14.238998,32.208001 32.11,32.390001 18.104007,0.189 32.232997,-13.726 32.342997,-31.85 z"/>
                <path id="path316" style="fill:#555555;fill-opacity:1;fill-rule:evenodd;stroke:none" d="m 60.040001,170.14799 c 0,-7.40699 -0.087,-14.82299 0.012,-22.22999 0.130001,-9.90801 4.689003,-17.299 14.005997,-20.573 16.846,-5.92 34.015002,-5.92399 50.904002,-0.134 9.928,3.39999 14.53499,11.13 14.57799,21.516 0.055,13.76101 0.181,27.519 -0.056,41.27601 -0.181,10.61399 -4.02699,19.709 -10.06199,28.714 -4.074,6.07401 -4.784,14.59399 -6.275,22.15399 -2.138,10.756 -3.53,21.65399 -5.388,32.47299 -1.38,8.02201 -5.20701,11.13901 -13.35501,11.23301 -3.179,0.031 -6.358001,0.039 -9.528999,-0.004 -8.22,-0.10599 -11.687003,-3.13599 -13.098998,-11.42301 C 79.251991,258.38699 76.991997,243.573 74.064995,228.892 73.196991,224.577 70.940994,220.30899 68.456993,216.60201 63.360992,208.998 60.323994,200.856 60.114994,191.737 c -0.161999,-7.194 -0.032,-14.396 -0.032,-21.59 -0.01999,9.9e-4 -0.031,9.9e-4 -0.04299,9.9e-4 z"/>
                <path id="path318" style="fill:#555555;fill-opacity:1;fill-rule:evenodd;stroke:none" d="m 131.03599,83.805 c -0.11,18.124 -14.23899,32.039 -32.342997,31.85 -17.871002,-0.182 -32.350998,-14.787 -32.11,-32.390001 0.245002,-17.559997 15.276001,-32.351001 32.662002,-32.146 C 117.042,51.324001 131.13901,65.815002 131.03599,83.805 Z"/>
              </g>
            </g>
          </g>
        </g>
        <g transform="matrix(1.0890124,0,0,1.0894624,4994.9824,2833.0979)" id="g326">
          <path id="path328" style="fill:#69a95d;fill-opacity:1;fill-rule:nonzero;stroke:none" d="m 293.49899,232.491 c 0.016,0 0.031,0 0.051,0 0,7.99 -0.146,15.99299 0.036,23.988 0.229,10.129 3.604,19.17701 9.26501,27.625 2.76502,4.11802 5.27301,8.86301 6.236,13.655 3.25,16.31299 5.76199,32.776 8.56601,49.177 1.569,9.206 5.423,12.57401 14.55499,12.69199 3.52499,0.048 7.056,0.04 10.586,0.004 9.056,-0.10599 13.30801,-3.569 14.83801,-12.483 2.06699,-12.01801 3.617,-24.13102 5.987,-36.07801 1.65701,-8.40499 2.44501,-17.867 6.974,-24.61499 6.70498,-10.00698 10.98001,-20.112 11.17801,-31.905 0.26901,-15.28399 0.126,-30.57099 0.063,-45.863 -0.048,-11.541 -5.16699,-20.131 -16.195,-23.90601 -18.767,-6.43699 -37.845,-6.429 -56.56101,0.15 -10.354,3.63699 -15.418,11.849 -15.56299,22.86099 -0.10702,8.22703 -0.016,16.46203 -0.016,24.69803 z M 372.384,136.55099 c 0.11801,-19.985 -15.54501,-36.08999 -35.32101,-36.318 -19.314,-0.22899 -36.01901,16.21 -36.29001,35.71901 -0.26901,19.55999 15.82001,35.79 35.67899,35.99099 20.11502,0.209 35.81402,-15.25299 35.93203,-35.392 z"/>
          <path id="path330" style="fill:#69a95d;fill-opacity:1;fill-rule:evenodd;stroke:none" d="m 293.49899,232.491 c 0,-8.236 -0.091,-16.472 0.016,-24.69901 0.146,-11.01199 5.21,-19.224 15.56299,-22.86099 18.71601,-6.57899 37.79401,-6.58701 56.56101,-0.14999 11.02801,3.77499 16.147,12.365 16.195,23.906 0.062,15.29199 0.20499,30.579 -0.063,45.86301 -0.19699,11.793 -4.473,21.89801 -11.17801,31.905 -4.52799,6.74798 -5.31601,16.20999 -6.974,24.61499 -2.37,11.94699 -3.92002,24.061 -5.987,36.078 -1.53,8.914 -5.78201,12.37701 -14.83801,12.483 -3.53,0.036 -7.06101,0.044 -10.586,-0.004 -9.13199,-0.11801 -12.98499,-3.48599 -14.555,-12.69198 -2.80499,-16.4 -5.316,-32.86301 -8.566,-49.177 -0.96302,-4.792 -3.47199,-9.53699 -6.236,-13.655 -5.66,-8.448 -9.03601,-17.496 -9.26501,-27.625 -0.18201,-7.995 -0.036,-15.998 -0.036,-23.98801 -0.02,9.8e-4 -0.0349,9.8e-4 -0.051,9.8e-4 z"/>
          <path id="path332" style="fill:#69a95d;fill-opacity:1;fill-rule:evenodd;stroke:none" d="m 372.384,136.55099 c -0.11801,20.13901 -15.81601,35.601 -35.93301,35.392 -19.858,-0.201 -35.94699,-16.432 -35.67902,-35.99099 0.271,-19.508 16.97602,-35.948 36.29001,-35.71901 19.77701,0.22801 35.44003,16.33301 35.32202,36.318 z"/>
          <path id="path334" style="fill:#69a95d;fill-opacity:1;fill-rule:nonzero;stroke:none" d="m 122.047,232.491 c 0.02,0 0.036,0 0.052,0 0,7.99 -0.142,15.99299 0.039,23.988 0.229,10.129 3.601,19.17701 9.261,27.625 2.769,4.11802 5.27699,8.86301 6.23601,13.655 3.254,16.31299 5.763,32.776 8.571,49.177 1.57001,9.206 5.423,12.57401 14.554,12.69199 3.526,0.048 7.056,0.04 10.586,0.004 9.056,-0.10599 13.308,-3.569 14.838,-12.483 2.067,-12.01801 3.613,-24.13102 5.983,-36.07801 1.66099,-8.40499 2.45399,-17.867 6.97799,-24.61499 6.70501,-10.00698 10.97701,-20.112 11.178,-31.905 0.265,-15.28399 0.13,-30.57099 0.063,-45.863 -0.051,-11.541 -5.16701,-20.131 -16.19099,-23.90601 -18.771,-6.43699 -37.849,-6.429 -56.564,0.15 -10.354,3.63699 -15.42199,11.849 -15.564,22.86099 -0.11001,8.22703 -0.02,16.46203 -0.02,24.69803 z m 78.88501,-95.94001 c 0.123,-19.985 -15.54,-36.08999 -35.31601,-36.318 -19.31501,-0.22899 -36.023,16.21 -36.291,35.71901 -0.26801,19.55999 15.81599,35.79 35.67599,35.99099 20.11801,0.209 35.81601,-15.25299 35.93102,-35.392 z"/>
          <path id="path336" style="fill:#69a95d;fill-opacity:1;fill-rule:evenodd;stroke:none" d="m 122.047,232.491 c 0,-8.236 -0.09,-16.472 0.02,-24.69901 0.142,-11.01199 5.21,-19.224 15.56401,-22.86099 18.71499,-6.57899 37.793,-6.58701 56.56399,-0.14999 11.024,3.77499 16.14,12.365 16.191,23.906 0.067,15.29199 0.201,30.579 -0.063,45.86301 -0.201,11.793 -4.473,21.89801 -11.17799,31.905 -4.524,6.74798 -5.317,16.20999 -6.978,24.61499 -2.36999,11.94699 -3.91701,24.061 -5.983,36.078 -1.53,8.914 -5.782,12.37701 -14.838,12.483 -3.53,0.036 -7.06,0.044 -10.586,-0.004 -9.13099,-0.11801 -12.98399,-3.48599 -14.554,-12.69198 -2.808,-16.4 -5.317,-32.86301 -8.571,-49.177 -0.95799,-4.792 -3.46699,-9.53699 -6.236,-13.655 -5.66001,-8.448 -9.032,-17.496 -9.261,-27.625 -0.181,-7.995 -0.039,-15.998 -0.039,-23.98801 -0.016,9.8e-4 -0.032,9.8e-4 -0.052,9.8e-4 z"/>
          <path id="path338" style="fill:#69a95d;fill-opacity:1;fill-rule:evenodd;stroke:none" d="m 200.93201,136.55099 c -0.114,20.13901 -15.812,35.601 -35.93201,35.392 -19.85899,-0.201 -35.944,-16.432 -35.676,-35.99099 0.26801,-19.508 16.976,-35.948 36.291,-35.71901 19.777,0.22801 35.439,16.33301 35.31701,36.318 z"/>
        </g>
        <g transform="translate(5314,2942)" id="g340">
          <g id="g342"/>
          <g id="g358">
            <g id="g356" opacity="0.098" clip-path="url(#clipPath346)">
              <g id="g354" transform="matrix(1.0890124,0,0,1.0894624,-319.01758,-108.9021)">
                <path id="path348" style="fill:#555555;fill-opacity:1;fill-rule:nonzero;stroke:none" d="m 293.49899,232.491 c 0.016,0 0.031,0 0.051,0 0,7.99 -0.146,15.99299 0.036,23.988 0.229,10.129 3.604,19.17701 9.26501,27.625 2.76502,4.11802 5.27301,8.86301 6.236,13.655 3.25,16.31299 5.76199,32.776 8.56601,49.177 1.569,9.206 5.423,12.57401 14.55499,12.69199 3.52499,0.048 7.056,0.04 10.586,0.004 9.056,-0.10599 13.30801,-3.569 14.83801,-12.483 2.06699,-12.01801 3.617,-24.13102 5.987,-36.07801 1.65701,-8.40499 2.44501,-17.867 6.974,-24.61499 6.70498,-10.00698 10.98001,-20.112 11.17801,-31.905 0.26901,-15.28399 0.126,-30.57099 0.063,-45.863 -0.048,-11.541 -5.16699,-20.131 -16.195,-23.90601 -18.767,-6.43699 -37.845,-6.429 -56.56101,0.15 -10.354,3.63699 -15.418,11.849 -15.56299,22.86099 -0.10702,8.22703 -0.016,16.46203 -0.016,24.69803 z M 372.384,136.55099 c 0.11801,-19.985 -15.54501,-36.08999 -35.32101,-36.318 -19.314,-0.22899 -36.01901,16.21 -36.29001,35.71901 -0.26901,19.55999 15.82001,35.79 35.67899,35.99099 20.11502,0.209 35.81402,-15.25299 35.93203,-35.392 z"/>
                <path id="path350" style="fill:#555555;fill-opacity:1;fill-rule:evenodd;stroke:none" d="m 293.49899,232.491 c 0,-8.236 -0.091,-16.472 0.016,-24.69901 0.146,-11.01199 5.21,-19.224 15.56299,-22.86099 18.71601,-6.57899 37.79401,-6.58701 56.56101,-0.14999 11.02801,3.77499 16.147,12.365 16.195,23.906 0.062,15.29199 0.20499,30.579 -0.063,45.86301 -0.19699,11.793 -4.473,21.89801 -11.17801,31.905 -4.52799,6.74798 -5.31601,16.20999 -6.974,24.61499 -2.37,11.94699 -3.92002,24.061 -5.987,36.078 -1.53,8.914 -5.78201,12.37701 -14.83801,12.483 -3.53,0.036 -7.06101,0.044 -10.586,-0.004 -9.13199,-0.11801 -12.98499,-3.48599 -14.555,-12.69198 -2.80499,-16.4 -5.316,-32.86301 -8.566,-49.177 -0.96302,-4.792 -3.47199,-9.53699 -6.236,-13.655 -5.66,-8.448 -9.03601,-17.496 -9.26501,-27.625 -0.18201,-7.995 -0.036,-15.998 -0.036,-23.98801 -0.02,9.8e-4 -0.0349,9.8e-4 -0.051,9.8e-4 z"/>
                <path id="path352" style="fill:#555555;fill-opacity:1;fill-rule:evenodd;stroke:none" d="m 372.384,136.55099 c -0.11801,20.13901 -15.81601,35.601 -35.93301,35.392 -19.858,-0.201 -35.94699,-16.432 -35.67902,-35.99099 0.271,-19.508 16.97602,-35.948 36.29001,-35.71901 19.77701,0.22801 35.44003,16.33301 35.32202,36.318 z"/>
              </g>
            </g>
          </g>
        </g>
        <g transform="translate(5127,2942)" id="g360">
          <g id="g362"/>
          <g id="g378">
            <g id="g376" opacity="0.098" clip-path="url(#clipPath366)">
              <g id="g374" transform="matrix(1.0890124,0,0,1.0894624,-132.01758,-108.9021)">
                <path id="path368" style="fill:#555555;fill-opacity:1;fill-rule:nonzero;stroke:none" d="m 122.047,232.491 c 0.02,0 0.036,0 0.052,0 0,7.99 -0.142,15.99299 0.039,23.988 0.229,10.129 3.601,19.17701 9.261,27.625 2.769,4.11802 5.27699,8.86301 6.23601,13.655 3.254,16.31299 5.763,32.776 8.571,49.177 1.57001,9.206 5.423,12.57401 14.554,12.69199 3.526,0.048 7.056,0.04 10.586,0.004 9.056,-0.10599 13.308,-3.569 14.838,-12.483 2.067,-12.01801 3.613,-24.13102 5.983,-36.07801 1.66099,-8.40499 2.45399,-17.867 6.97799,-24.61499 6.70501,-10.00698 10.97701,-20.112 11.178,-31.905 0.265,-15.28399 0.13,-30.57099 0.063,-45.863 -0.051,-11.541 -5.16701,-20.131 -16.19099,-23.90601 -18.771,-6.43699 -37.849,-6.429 -56.564,0.15 -10.354,3.63699 -15.42199,11.849 -15.564,22.86099 -0.11001,8.22703 -0.02,16.46203 -0.02,24.69803 z m 78.88501,-95.94001 c 0.123,-19.985 -15.54,-36.08999 -35.31601,-36.318 -19.31501,-0.22899 -36.023,16.21 -36.291,35.71901 -0.26801,19.55999 15.81599,35.79 35.67599,35.99099 20.11801,0.209 35.81601,-15.25299 35.93102,-35.392 z"/>
                <path id="path370" style="fill:#555555;fill-opacity:1;fill-rule:evenodd;stroke:none" d="m 122.047,232.491 c 0,-8.236 -0.09,-16.472 0.02,-24.69901 0.142,-11.01199 5.21,-19.224 15.56401,-22.86099 18.71499,-6.57899 37.793,-6.58701 56.56399,-0.14999 11.024,3.77499 16.14,12.365 16.191,23.906 0.067,15.29199 0.201,30.579 -0.063,45.86301 -0.201,11.793 -4.473,21.89801 -11.17799,31.905 -4.524,6.74798 -5.317,16.20999 -6.978,24.61499 -2.36999,11.94699 -3.91701,24.061 -5.983,36.078 -1.53,8.914 -5.782,12.37701 -14.838,12.483 -3.53,0.036 -7.06,0.044 -10.586,-0.004 -9.13099,-0.11801 -12.98399,-3.48599 -14.554,-12.69198 -2.808,-16.4 -5.317,-32.86301 -8.571,-49.177 -0.95799,-4.792 -3.46699,-9.53699 -6.236,-13.655 -5.66001,-8.448 -9.032,-17.496 -9.261,-27.625 -0.181,-7.995 -0.039,-15.998 -0.039,-23.98801 -0.016,9.8e-4 -0.032,9.8e-4 -0.052,9.8e-4 z"/>
                <path id="path372" style="fill:#555555;fill-opacity:1;fill-rule:evenodd;stroke:none" d="m 200.93201,136.55099 c -0.114,20.13901 -15.812,35.601 -35.93201,35.392 -19.85899,-0.201 -35.944,-16.432 -35.676,-35.99099 0.26801,-19.508 16.976,-35.948 36.291,-35.71901 19.777,0.22801 35.439,16.33301 35.31701,36.318 z"/>
              </g>
            </g>
          </g>
        </g>
        <g transform="matrix(1.0890124,0,0,1.0894624,4994.9824,2833.0979)" id="g380">
          <path id="path382" style="fill:#69a95d;fill-opacity:1;fill-rule:nonzero;stroke:none" d="m 199.812,279.16 c 0.02,0 0.036,0 0.059,0 0,8.88199 -0.162,17.77201 0.04,26.654 0.25199,11.25698 4.003,21.311 10.294,30.694 3.073,4.57901 5.86101,9.84899 6.926,15.178 3.617,18.12299 6.405,36.413 9.52099,54.63901 1.74401,10.228 6.027,13.97101 16.17101,14.10102 3.921,0.052 7.841,0.048 11.76199,0.005 10.06201,-0.11499 14.79099,-3.965 16.491,-13.87201 2.29501,-13.35199 4.01501,-26.81 6.64599,-40.086 1.84601,-9.33999 2.72602,-19.85101 7.75101,-27.349 7.45001,-11.11898 12.19901,-22.349 12.42401,-35.45099 0.292,-16.979 0.14301,-33.97198 0.067,-50.95899 -0.056,-12.823 -5.74301,-22.368 -17.98999,-26.564 -20.853,-7.151 -42.05301,-7.14 -62.847,0.16901 -11.50501,4.043 -17.134,13.166 -17.29601,25.397 -0.11799,9.14595 -0.019,18.29695 -0.019,27.44395 z m 87.64799,-106.597 c 0.13501,-22.20599 -17.268,-40.10099 -39.241,-40.35699 -21.45999,-0.252 -40.02099,18.017 -40.321,39.69099 -0.3,21.732 17.575,39.76599 39.64,39.99001 22.35502,0.228 39.792,-16.94901 39.922,-39.32401 z"/>
          <path id="path384" style="fill:#69a95d;fill-opacity:1;fill-rule:evenodd;stroke:none" d="m 199.812,279.16 c 0,-9.147 -0.099,-18.298 0.02,-27.444 0.162,-12.231 5.791,-21.354 17.29601,-25.397 20.794,-7.30901 41.994,-7.32001 62.847,-0.16901 12.24701,4.196 17.93499,13.741 17.98999,26.564 0.075,16.987 0.225,33.979 -0.067,50.95898 -0.22501,13.103 -4.974,24.332 -12.42401,35.45099 -5.02499,7.49799 -5.905,18.00901 -7.75101,27.349 -2.63101,13.276 -4.35101,26.73401 -6.64599,40.086 -1.70002,9.90701 -6.43,13.75699 -16.491,13.87201 -3.92101,0.043 -7.841,0.047 -11.76199,-0.005 -10.14501,-0.13 -14.428,-3.87298 -16.17101,-14.10101 -3.116,-18.22601 -5.90401,-36.51599 -9.521,-54.63901 -1.065,-5.32901 -3.854,-10.599 -6.92599,-15.17801 -6.291,-9.384 -10.04201,-19.43798 -10.29401,-30.694 -0.201,-8.88198 -0.04,-17.772 -0.04,-26.65399 -0.025,6e-5 -0.041,6e-5 -0.06,6e-5 z"/>
          <path id="path386" style="fill:#69a95d;fill-opacity:1;fill-rule:evenodd;stroke:none" d="m 287.45999,172.563 c -0.13,22.375 -17.56698,39.55201 -39.923,39.32401 -22.064,-0.22501 -39.939,-18.258 -39.64,-39.99001 0.3,-21.67399 18.86101,-39.94299 40.321,-39.69101 21.974,0.25602 39.37701,18.151 39.242,40.35701 z"/>
        </g>
        <g transform="translate(5211,2976)" id="g388">
          <g id="g390"/>
          <g id="g406">
            <g id="g404" opacity="0.4" clip-path="url(#clipPath394)">
              <g id="g402" transform="matrix(1.0890124,0,0,1.0894624,-216.01758,-142.9021)">
                <path id="path396" style="fill:#ffffff;fill-opacity:1;fill-rule:nonzero;stroke:none" d="m 199.812,279.16 c 0.02,0 0.036,0 0.059,0 0,8.88199 -0.162,17.77201 0.04,26.654 0.25199,11.25698 4.003,21.311 10.294,30.694 3.073,4.57901 5.86101,9.84899 6.926,15.178 3.617,18.12299 6.405,36.413 9.52099,54.63901 1.74401,10.228 6.027,13.97101 16.17101,14.10102 3.921,0.052 7.841,0.048 11.76199,0.005 10.06201,-0.11499 14.79099,-3.965 16.491,-13.87201 2.29501,-13.35199 4.01501,-26.81 6.64599,-40.086 1.84601,-9.33999 2.72602,-19.85101 7.75101,-27.349 7.45001,-11.11898 12.19901,-22.349 12.42401,-35.45099 0.292,-16.979 0.14301,-33.97198 0.067,-50.95899 -0.056,-12.823 -5.74301,-22.368 -17.98999,-26.564 -20.853,-7.151 -42.05301,-7.14 -62.847,0.16901 -11.50501,4.043 -17.134,13.166 -17.29601,25.397 -0.11799,9.14595 -0.019,18.29695 -0.019,27.44395 z m 87.64799,-106.597 c 0.13501,-22.20599 -17.268,-40.10099 -39.241,-40.35699 -21.45999,-0.252 -40.02099,18.017 -40.321,39.69099 -0.3,21.732 17.575,39.76599 39.64,39.99001 22.35502,0.228 39.792,-16.94901 39.922,-39.32401 z"/>
                <path id="path398" style="fill:#ffffff;fill-opacity:1;fill-rule:evenodd;stroke:none" d="m 199.812,279.16 c 0,-9.147 -0.099,-18.298 0.02,-27.444 0.162,-12.231 5.791,-21.354 17.29601,-25.397 20.794,-7.30901 41.994,-7.32001 62.847,-0.16901 12.24701,4.196 17.93499,13.741 17.98999,26.564 0.075,16.987 0.225,33.979 -0.067,50.95898 -0.22501,13.103 -4.974,24.332 -12.42401,35.45099 -5.02499,7.49799 -5.905,18.00901 -7.75101,27.349 -2.63101,13.276 -4.35101,26.73401 -6.64599,40.086 -1.70002,9.90701 -6.43,13.75699 -16.491,13.87201 -3.92101,0.043 -7.841,0.047 -11.76199,-0.005 -10.14501,-0.13 -14.428,-3.87298 -16.17101,-14.10101 -3.116,-18.22601 -5.90401,-36.51599 -9.521,-54.63901 -1.065,-5.32901 -3.854,-10.599 -6.92599,-15.17801 -6.291,-9.384 -10.04201,-19.43798 -10.29401,-30.694 -0.201,-8.88198 -0.04,-17.772 -0.04,-26.65399 -0.025,6e-5 -0.041,6e-5 -0.06,6e-5 z"/>
                <path id="path400" style="fill:#ffffff;fill-opacity:1;fill-rule:evenodd;stroke:none" d="m 287.45999,172.563 c -0.13,22.375 -17.56698,39.55201 -39.923,39.32401 -22.064,-0.22501 -39.939,-18.258 -39.64,-39.99001 0.3,-21.67399 18.86101,-39.94299 40.321,-39.69101 21.974,0.25602 39.37701,18.151 39.242,40.35701 z"/>
              </g>
            </g>
          </g>
        </g>
      </g>
    </g>
    <g id="g408">
      <g clip-path="url(#clipPath414)" id="g410">
        <g transform="matrix(3.1116948,0,0,3.1116948,4567.2212,2947.3784)" id="g416">
          <text id="text420" style="font-variant:normal;font-weight:normal;font-size:85.69px;font-family:Oswald;-inkscape-font-specification:Oswald-Regular;writing-mode:lr-tb;fill:#69a95d;fill-opacity:1;fill-rule:nonzero;stroke:none" transform="translate(0,98)">
            <tspan id="tspan418" y="0" x="0 48.070633 85.773087">Hub</tspan>
          </text>
        </g>
        <g transform="matrix(3.1116948,0,0,3.1116948,2237.0366,2947.3784)" id="g422">
          <text id="text426" style="font-variant:normal;font-weight:normal;font-size:85.69px;font-family:Oswald;-inkscape-font-specification:Oswald-Regular;writing-mode:lr-tb;fill:#fbb040;fill-opacity:1;fill-rule:nonzero;stroke:none" transform="translate(0,98)">
            <tspan id="tspan424" y="0" x="0 35.388901 55.011322 91.085724 128.7025 166.57632">Tienda</tspan>
          </text>
        </g>
        <g transform="matrix(3.2433293,0,0,3.2433293,83.205376,716.08972)" id="g428">
          <text id="text432" style="font-variant:normal;font-weight:normal;font-size:42.66px;font-family:Oswald;-inkscape-font-specification:Oswald-Regular;writing-mode:lr-tb;fill:#545454;fill-opacity:1;fill-rule:nonzero;stroke:none" transform="translate(5.78125,49)">
            <tspan id="tspan430" y="0" x="0 20.176376 38.305252 48.073517 66.202393 75.970657 94.86734 113.63606 123.40433 141.36258 155.05522">Sólo quiero</tspan>
          </text>
          <text id="text436" style="font-variant:normal;font-weight:bold;font-size:42.66px;font-family:Oswald;-inkscape-font-specification:Oswald-Bold;writing-mode:lr-tb;fill:#f27052;fill-opacity:1;fill-rule:nonzero;stroke:none" transform="translate(189.87311,49)">
            <tspan id="tspan434" y="0" x="0 18.086227 38.134628 54.471939 65.391922 86.933289 107.23763 123.57494 138.67523">ser parte</tspan>
          </text>
          <text id="text440" style="font-variant:normal;font-weight:normal;font-size:42.66px;font-family:Oswald;-inkscape-font-specification:Oswald-Regular;writing-mode:lr-tb;fill:#545454;fill-opacity:1;fill-rule:nonzero;stroke:none" transform="translate(50.40625,108)">
            <tspan id="tspan438" y="0" x="0 18.854034 36.812286 46.580551 56.348816 75.20285 84.971115 98.663757 116.62201 134.1537 147.29181 165.42068 179.11333 188.88159 207.01047 216.77873 235.63277">del directorio de</tspan>
          </text>
          <text id="text444" style="font-variant:normal;font-weight:bold;font-size:42.66px;font-family:Oswald;-inkscape-font-specification:Oswald-Bold;writing-mode:lr-tb;fill:#f27052;fill-opacity:1;fill-rule:nonzero;stroke:none" transform="translate(97.015625,167)">
            <tspan id="tspan442" y="0" x="0 11.68779 31.992126 45.642105 65.690506 82.027817 93.331711 113.63605 124.04416 144.00725">laferia.cr</tspan>
          </text>
        </g>
      </g>
    </g>
    <g id="g446">
      <g clip-path="url(#clipPath452)" id="g448">
        <g transform="matrix(0.9266507,0,0,0.9315353,2923.7568,2889.1033)" id="g454">
          <path id="path456" style="fill:#fbb040;fill-opacity:1;fill-rule:nonzero;stroke:none" d="M 471.827,96.050003 V 15 c 0,-8.2840004 -6.71601,-15 -15,-15 H 346.96201 c -0.02,0 -0.037,0.003 -0.057,0.003 -0.02,0 -0.037,-0.003 -0.056,-0.003 H 236.981 c -0.14799,0 -0.292,0.018 -0.43899,0.022 C 236.395,0.018 236.25101,0 236.103,0 H 126.236 c -0.23,0 -0.453,0.024 -0.681,0.034 C 125.328,0.024 125.105,0 124.875,0 H 15.008 C 6.724,0 0.00800037,6.7160001 0.00800037,15 v 80.428001 c -0.083,4.049004 0.15800001,29.791999 18.58600163,48.785999 0.611999,0.63001 1.243,1.234 1.878,1.833 v 275.061 c 0,8.284 6.716,15 14.999998,15 h 394.16399 c 8.28399,0 15,-6.716 15,-15 V 151.61 c 4.388,-2.80701 8.33801,-6.11301 11.80499,-9.953 C 472.698,123.655 472.20401,101.339 471.827,96.050003 Z M 361.96201,95.608002 V 30 H 441.827 v 66.662003 c 0,0.509002 0.025,1.017997 0.078,1.524002 0.013,0.134002 0.96799,13.734005 -7.72901,23.365995 -6.82501,7.558 -18.39199,11.39101 -34.37698,11.39101 -12.10901,0 -21.39001,-3.18801 -27.578,-9.476 -10.12702,-10.288 -10.26599,-26.436996 -10.26401,-27.459999 0.008,-0.171012 0.005,-0.197013 0.005,-0.399009 z m -109.98101,0 V 30 h 79.86699 v 66.663002 c 0,0.509003 0.026,1.016998 0.077,1.524002 0.015,0.133003 0.97,13.733006 -7.72901,23.364996 -6.82501,7.558 -18.393,11.39101 -34.37799,11.39101 -12.10998,0 -21.39099,-3.18801 -27.578,-9.476 -10.127,-10.288 -10.26601,-26.436996 -10.26401,-27.459999 0.009,-0.171012 0.005,-0.197013 0.005,-0.399009 z m -110.746,0 V 30 h 79.868 v 66.662003 c 0,0.508003 0.026,1.016998 0.078,1.523002 0.014,0.133003 0.968,13.735005 -7.731,23.366995 -6.82601,7.558 -18.392,11.39101 -34.377,11.39101 -12.11,0 -21.38901,-3.18801 -27.57801,-9.476 -10.12699,-10.288 -10.266,-26.438003 -10.264,-27.459999 0.007,-0.171012 0.004,-0.197013 0.004,-0.399009 z m -111.227001,0 V 30 h 79.865991 v 66.662003 c 0,0.508003 0.026,1.016998 0.078,1.523002 0.014,0.133003 0.967,13.735005 -7.73201,23.366995 -6.824993,7.558 -18.390995,11.39101 -34.375996,11.39101 -12.111,0 -21.389,-3.18801 -27.577999,-9.476 -10.126999,-10.288 -10.264999,-26.438003 -10.263,-27.459999 0.007,-0.171012 0.005,-0.197013 0.005,-0.399009 z M 350.23499,406.108 H 279.50598 V 235.467 h 70.72901 z m 64.401,0 h -34.4 V 231.729 c 0,-14.47999 -11.781,-26.26199 -26.26199,-26.26199 h -78.20502 c -14.48001,0 -26.26199,11.782 -26.26199,26.26199 V 406.108 H 50.472 V 161.24899 c 5.424,1.12 11.213001,1.694 17.372002,1.694 24.830002,0 43.886998,-7.16099 56.640998,-21.28399 0.531,-0.588 1.042,-1.18201 1.539,-1.778 1.17501,1.473 2.431,2.923 3.799,4.33299 12.058,12.42799 28.628,18.729 49.25,18.729 24.83,0 43.886,-7.16099 56.64,-21.28399 0.444,-0.491 0.86999,-0.987 1.289,-1.484 1.108,1.372 2.28999,2.72301 3.567,4.04 12.058,12.42799 28.62799,18.729 49.25,18.729 24.83099,0 43.88901,-7.161 56.642,-21.285 0.306,-0.338 0.59399,-0.68201 0.888,-1.023 1.00101,1.21401 2.065,2.41 3.20001,3.579 12.05899,12.42799 28.62799,18.729 49.25,18.729 5.20599,0 10.14401,-0.334 14.83701,-0.96201 V 406.108 Z"/>
          <path id="path458" style="fill:#fbb040;fill-opacity:1;fill-rule:nonzero;stroke:none" d="m 178.694,200.933 h -67.277 c -13.612999,0 -24.687996,11.076 -24.687996,24.688 v 39.982 27.293 39.98199 c 0,13.61301 11.074997,24.68799 24.688006,24.68799 H 178.694 c 13.61301,0 24.688,-11.07501 24.687,-24.68799 v -39.944 c 0,-0.013 0.001,-0.025 0.001,-0.038 v -67.275 c 0,-13.613 -11.07499,-24.688 -24.688,-24.688 z m -61.965,30.00101 h 56.652 V 265.604 287.58401 H 116.729 V 265.604 Z m 0,96.63398 v -9.983 h 56.652 v 9.983 z"/>
        </g>
      </g>
    </g>
    <g id="g460">
      <g clip-path="url(#clipPath466)" id="g462">
        <g transform="matrix(0.90767628,0,0,0.905999,839.09662,2841.8037)" id="g468">
          <path id="path470" style="fill:#f27052;fill-opacity:1;fill-rule:nonzero;stroke:none" d="m 361,174.5 c 2.5,-10.10001 3.70001,-20.5 3.70001,-30.89999 C 364.80002,64.400009 293,0 204.80002,0 116.60004,0 44.900024,64.400002 44.900024,143.60001 c 0,10.39999 1.3,20.69999 3.700001,30.89999 -30.6,20.7 -48.599998297119,52.89999 -48.599998297119,87.70001 0,60.5 54.700000297119,109.70001 121.899993297119,109.70001 h 78.30001 v 118.10001 c 0,5.5 4.5,10 10,10 5.5,0 10,-4.5 10,-10 V 371.80005 h 67.59999 c 67.19998,0 121.80002,-49.20001 121.80002,-109.70001 0.1,-34.7 -18,-66.9 -48.60001,-87.60001 z m -73.20001,177.29999 h -67.60001 v -132 l 58.60001,-54.30001 c 4.1,-3.8 4.29999,-10.1 0.5,-14.1 -3.79999,-4.10001 -10.10001,-4.3 -14.10001,-0.5 l -45,41.7 v -73.7 c 0,-5.5 -4.5,-10 -10,-10 -5.5,0 -10,4.5 -10,10 V 259.5 l -45,-41.7 c -4.1,-3.8 -10.39999,-3.5 -14.1,0.5 -3.80001,4.10001 -3.5,10.4 0.5,14.10001 l 58.6,54.3 v 65.20001 h -78.3 c -56.199998,-0.1 -101.900003,-40.29998 -101.900003,-89.70001 0,-30 16.900002,-57.89999 45.299996,-74.6 4,-2.4 5.800003,-7.10001 4.5,-11.60001 -3.300004,-10.60001 -4.900002,-21.5 -4.900002,-32.39999 0,-68.100002 62.799999,-123.600002 139.899989,-123.600002 77.19998,0 139.89999,55.5 139.89999,123.600002 0,10.89999 -1.6,21.8 -4.89999,32.39999 -1.4,4.39999 0.5,9.2 4.5,11.60001 28.39999,16.69999 45.29999,44.6 45.29999,74.6 0.1,49.4 -45.60001,89.60001 -101.80002,89.60001 z"/>
        </g>
      </g>
    </g>
    <g id="g472">
      <g clip-path="url(#clipPath478)" id="g474">
        <g transform="matrix(7.4242935,0,0,7.4374399,1257.2766,1577.943)" id="g480">
          <path id="path482" style="fill:#777777;fill-opacity:1;fill-rule:nonzero;stroke:none" d="m 168.17677,4.6999998 c 2.80001,0 5.10001,2.3000002 5.10001,5.1000004 V 76.743874 c 0,2.800003 -2.3,5.100006 -5.10001,5.100006 H 9.8000002 C 7,81.84388 4.6999998,79.543877 4.6999998,76.743874 V 9.8000002 C 4.6999998,7 7,4.6999998 9.8000002,4.6999998 H 168.17677 M 168.17677,0 H 9.8000002 C 4.4000001,0 0,4.4000001 0,9.8000002 V 76.743874 c 0,5.400001 4.4000001,9.800003 9.8000002,9.800003 H 168.17677 c 5.40001,0 9.80001,-4.400002 9.80001,-9.800003 V 9.8000002 C 177.97678,4.4000001 173.57678,0 168.17677,0 Z"/>
        </g>
        <g transform="matrix(7.4242935,0,0,7.4374399,4394.2217,1577.943)" id="g484">
          <path id="path486" style="fill:#777777;fill-opacity:1;fill-rule:nonzero;stroke:none" d="m 168.17677,4.6999998 c 2.80001,0 5.10001,2.3000002 5.10001,5.1000004 V 76.743874 c 0,2.800003 -2.3,5.100006 -5.10001,5.100006 H 9.8000002 C 7,81.84388 4.6999998,79.543877 4.6999998,76.743874 V 9.8000002 C 4.6999998,7 7,4.6999998 9.8000002,4.6999998 H 168.17677 M 168.17677,0 H 9.8000002 C 4.4000001,0 0,4.4000001 0,9.8000002 V 76.743874 c 0,5.400001 4.4000001,9.800003 9.8000002,9.800003 H 168.17677 c 5.40001,0 9.80001,-4.400002 9.80001,-9.800003 V 9.8000002 C 177.97678,4.4000001 173.57678,0 168.17677,0 Z"/>
        </g>
        <g transform="matrix(3.125,0,0,3.125,4481.3018,1622.5736)" id="g488">
          <text id="text492" style="font-variant:normal;font-weight:normal;font-size:42.66px;font-family:Oswald;-inkscape-font-specification:Oswald-Regular;writing-mode:lr-tb;fill:#555555;fill-opacity:1;fill-rule:nonzero;stroke:none" transform="translate(45.234375,49)">
            <tspan id="tspan490" y="0" x="0 23.076996 41.845718 51.613983 69.572235 83.264877 101.39375 111.16202 127.58466 145.54291 164.26897 183.123 201.08125 214.7739 224.54216 253.54837 263.31665">Quiero vender mis</tspan>
          </text>
          <text id="text496" style="font-variant:normal;font-weight:normal;font-size:42.66px;font-family:Oswald;-inkscape-font-specification:Oswald-Regular;writing-mode:lr-tb;fill:#555555;fill-opacity:1;fill-rule:nonzero;stroke:none" transform="translate(36.953125,108)">
            <tspan id="tspan494" y="0" x="0 19.024658 32.7173 50.846176 69.700211 88.468933 106.00063 119.13873 137.26761 153.22102">productos </tspan>
          </text>
          <text id="text500" style="font-variant:normal;font-weight:bold;font-size:42.66px;font-family:Oswald;-inkscape-font-specification:Oswald-Bold;writing-mode:lr-tb;fill:#69a95d;fill-opacity:1;fill-rule:nonzero;stroke:none" transform="translate(199.9375,108)">
            <tspan id="tspan498" y="0" x="0 19.10997 30.029953 41.717743 62.320679 80.406906 91.326889 112.78294">y los de</tspan>
          </text>
          <text id="text504" style="font-variant:normal;font-weight:bold;font-size:42.66px;font-family:Oswald;-inkscape-font-specification:Oswald-Bold;writing-mode:lr-tb;fill:#69a95d;fill-opacity:1;fill-rule:nonzero;stroke:none" transform="translate(139.5,167)">
            <tspan id="tspan502" y="0" x="0 20.602936 35.703232 52.040543 72.643478">otros</tspan>
          </text>
        </g>
        <g transform="matrix(3.125,0,0,3.125,1347.0475,1805.8027)" id="g506">
          <text id="text510" style="font-variant:normal;font-weight:normal;font-size:42.66px;font-family:Oswald;-inkscape-font-specification:Oswald-Regular;writing-mode:lr-tb;fill:#555555;fill-opacity:1;fill-rule:nonzero;stroke:none" transform="translate(10.890625,49)">
            <tspan id="tspan508" y="0" x="0 23.076996 41.845718 51.613983 69.572235 83.264877 101.39375 111.16202 127.11543 145.07368 158.76633">Quiero ser </tspan>
          </text>
          <text id="text514" style="font-variant:normal;font-weight:bold;font-size:42.66px;font-family:Oswald;-inkscape-font-specification:Oswald-Bold;writing-mode:lr-tb;fill:#f27052;fill-opacity:1;fill-rule:nonzero;stroke:none" transform="translate(179.42188,49)">
            <tspan id="tspan512" y="0" x="0 21.541367 37.878677 58.481613 76.439865 96.488266 116.53667 137.99272 158.59566">proveedor</tspan>
          </text>
        </g>
      </g>
    </g>
    <g id="g516">
      <g clip-path="url(#clipPath522)" id="g518">
        <g transform="matrix(-0.50767165,2.7368047,-2.7178783,-0.50416082,3773.0149,2207.5945)" id="g524">
          <path id="path526" style="fill:#fbb040;fill-opacity:1;fill-rule:nonzero;stroke:none" d="m 231.67999,46.919998 c -4.41,-2.099998 -8.74,-4.380001 -13.24,-6.260002 -41.92,-17.48 -85.47,-26.620001 -131.039996,-25.620001 -17.57,0.390001 -34.830002,2.42 -51.630001,7.76 -11.24,3.57 -21.629999,8.560002 -29.8300001,17.340001 -0.3800001,0.409999 -0.9099998,0.669998 -1.3299999,0.959999 -4.94000008,-3.310002 -6.06,-9.060002 -2.6400001,-13.470002 4.5200002,-5.84 10.4899991,-9.899999 16.9700001,-13.17 C 34.229992,6.7499933 50.659992,3.1599932 67.569992,1.4399929 c 6.75,1.3200002 13.330002,-0.88999998 20.020004,-0.98000001 6.75,-0.1 13.510004,-0.4600000127551 20.260004,-0.45000002 21.9,0.03 43.38999,3.29999993 64.66999,8.27000023 19.00999,4.4400009 37.36999,10.6999989 55.07001,18.9199999 0.3,0.14 0.64,0.18 1.46,0.41 -0.75999,-2.08 -2.05999,-3.360001 -3.19,-4.65 -2.02,-2.299999 -3.02,-4.42 -1,-7.42 0.98,-1.449999 0.99001,-3.55 3.28999,-4.399999 0.62,0.5 1.4,0.979999 1.99001,1.64 9.86999,11.020001 19.73,22.040002 29.55,33.099999 2.31,2.610001 2.29001,3.46 0.51001,6.5 -0.33999,0.580002 -0.66,1.189999 -0.83999,1.830002 -1.15,4.029999 -3.68,5.82 -7.80001,6.07 -10.11,0.619999 -20.21,1.360001 -30.3,2.18 -2.53999,0.209999 -5.09,0.75 -7.53,1.48 -2.16,0.650001 -4.17999,1.769996 -6.42999,2.760002 -1.10001,-3.020001 0.42999,-5.59 1.95,-8.189999 2.63,-4.5 6.64999,-7.029998 11.6,-8.240001 3.58,-0.869999 7.17,-1.73 10.76,-2.590001 0.01,-0.25 0.04,-0.5 0.07,-0.759998 z"/>
        </g>
      </g>
    </g>
    <g id="g528">
      <g clip-path="url(#clipPath534)" id="g530">
        <g transform="matrix(0.44395137,1.5129282,-1.5285054,0.44852233,3450.3059,456.66641)" id="g536">
          <path id="path538" style="fill:#0096ad;fill-opacity:1;fill-rule:nonzero;stroke:none" d="m 231.67999,46.919998 c -4.41,-2.099998 -8.74,-4.380001 -13.24,-6.260002 -41.92,-17.48 -85.47,-26.620001 -131.039996,-25.620001 -17.57,0.390001 -34.830002,2.42 -51.630001,7.76 -11.24,3.57 -21.629999,8.560002 -29.8300001,17.340001 -0.3800001,0.409999 -0.9099998,0.669998 -1.3299999,0.959999 -4.94000008,-3.310002 -6.06,-9.060002 -2.6400001,-13.470002 4.5200002,-5.84 10.4899991,-9.899999 16.9700001,-13.17 C 34.229992,6.7499933 50.659992,3.1599932 67.569992,1.4399929 c 6.75,1.3200002 13.330002,-0.88999998 20.020004,-0.98000001 6.75,-0.1 13.510004,-0.4600000127551 20.260004,-0.45000002 21.9,0.03 43.38999,3.29999993 64.66999,8.27000023 19.00999,4.4400009 37.36999,10.6999989 55.07001,18.9199999 0.3,0.14 0.64,0.18 1.46,0.41 -0.75999,-2.08 -2.05999,-3.360001 -3.19,-4.65 -2.02,-2.299999 -3.02,-4.42 -1,-7.42 0.98,-1.449999 0.99001,-3.55 3.28999,-4.399999 0.62,0.5 1.4,0.979999 1.99001,1.64 9.86999,11.020001 19.73,22.040002 29.55,33.099999 2.31,2.610001 2.29001,3.46 0.51001,6.5 -0.33999,0.580002 -0.66,1.189999 -0.83999,1.830002 -1.15,4.029999 -3.68,5.82 -7.80001,6.07 -10.11,0.619999 -20.21,1.360001 -30.3,2.18 -2.53999,0.209999 -5.09,0.75 -7.53,1.48 -2.16,0.650001 -4.17999,1.769996 -6.42999,2.760002 -1.10001,-3.020001 0.42999,-5.59 1.95,-8.189999 2.63,-4.5 6.64999,-7.029998 11.6,-8.240001 3.58,-0.869999 7.17,-1.73 10.76,-2.590001 0.01,-0.25 0.04,-0.5 0.07,-0.759998 z"/>
        </g>
      </g>
    </g>
    <g id="g540">
      <g clip-path="url(#clipPath546)" id="g542">
        <g transform="matrix(1.9124688,2.1037154,-2.1147087,1.9224626,4747.5181,957.70551)" id="g548">
          <path id="path550" style="fill:#69a95d;fill-opacity:1;fill-rule:nonzero;stroke:none" d="m 231.67999,46.919998 c -4.41,-2.099998 -8.74,-4.380001 -13.24,-6.260002 -41.92,-17.48 -85.47,-26.620001 -131.039996,-25.620001 -17.57,0.390001 -34.830002,2.42 -51.630001,7.76 -11.24,3.57 -21.629999,8.560002 -29.8300001,17.340001 -0.3800001,0.409999 -0.9099998,0.669998 -1.3299999,0.959999 -4.94000008,-3.310002 -6.06,-9.060002 -2.6400001,-13.470002 4.5200002,-5.84 10.4899991,-9.899999 16.9700001,-13.17 C 34.229992,6.7499933 50.659992,3.1599932 67.569992,1.4399929 c 6.75,1.3200002 13.330002,-0.88999998 20.020004,-0.98000001 6.75,-0.1 13.510004,-0.4600000127551 20.260004,-0.45000002 21.9,0.03 43.38999,3.29999993 64.66999,8.27000023 19.00999,4.4400009 37.36999,10.6999989 55.07001,18.9199999 0.3,0.14 0.64,0.18 1.46,0.41 -0.75999,-2.08 -2.05999,-3.360001 -3.19,-4.65 -2.02,-2.299999 -3.02,-4.42 -1,-7.42 0.98,-1.449999 0.99001,-3.55 3.28999,-4.399999 0.62,0.5 1.4,0.979999 1.99001,1.64 9.86999,11.020001 19.73,22.040002 29.55,33.099999 2.31,2.610001 2.29001,3.46 0.51001,6.5 -0.33999,0.580002 -0.66,1.189999 -0.83999,1.830002 -1.15,4.029999 -3.68,5.82 -7.80001,6.07 -10.11,0.619999 -20.21,1.360001 -30.3,2.18 -2.53999,0.209999 -5.09,0.75 -7.53,1.48 -2.16,0.650001 -4.17999,1.769996 -6.42999,2.760002 -1.10001,-3.020001 0.42999,-5.59 1.95,-8.189999 2.63,-4.5 6.64999,-7.029998 11.6,-8.240001 3.58,-0.869999 7.17,-1.73 10.76,-2.590001 0.01,-0.25 0.04,-0.5 0.07,-0.759998 z"/>
        </g>
      </g>
    </g>
    <g id="g552">
      <g clip-path="url(#clipPath558)" id="g554">
        <g transform="matrix(-2.2493651,2.0011244,1.993035,2.2402723,2249.396,934.01532)" id="g560">
          <path id="path562" style="fill:#f27052;fill-opacity:1;fill-rule:nonzero;stroke:none" d="m 231.67999,46.919998 c -4.41,-2.099998 -8.74,-4.380001 -13.24,-6.260002 -41.92,-17.48 -85.47,-26.620001 -131.039996,-25.620001 -17.57,0.390001 -34.830002,2.42 -51.630001,7.76 -11.24,3.57 -21.629999,8.560002 -29.8300001,17.340001 -0.3800001,0.409999 -0.9099998,0.669998 -1.3299999,0.959999 -4.94000008,-3.310002 -6.06,-9.060002 -2.6400001,-13.470002 4.5200002,-5.84 10.4899991,-9.899999 16.9700001,-13.17 C 34.229992,6.7499933 50.659992,3.1599932 67.569992,1.4399929 c 6.75,1.3200002 13.330002,-0.88999998 20.020004,-0.98000001 6.75,-0.1 13.510004,-0.4600000127551 20.260004,-0.45000002 21.9,0.03 43.38999,3.29999993 64.66999,8.27000023 19.00999,4.4400009 37.36999,10.6999989 55.07001,18.9199999 0.3,0.14 0.64,0.18 1.46,0.41 -0.75999,-2.08 -2.05999,-3.360001 -3.19,-4.65 -2.02,-2.299999 -3.02,-4.42 -1,-7.42 0.98,-1.449999 0.99001,-3.55 3.28999,-4.399999 0.62,0.5 1.4,0.979999 1.99001,1.64 9.86999,11.020001 19.73,22.040002 29.55,33.099999 2.31,2.610001 2.29001,3.46 0.51001,6.5 -0.33999,0.580002 -0.66,1.189999 -0.83999,1.830002 -1.15,4.029999 -3.68,5.82 -7.80001,6.07 -10.11,0.619999 -20.21,1.360001 -30.3,2.18 -2.53999,0.209999 -5.09,0.75 -7.53,1.48 -2.16,0.650001 -4.17999,1.769996 -6.42999,2.760002 -1.10001,-3.020001 0.42999,-5.59 1.95,-8.189999 2.63,-4.5 6.64999,-7.029998 11.6,-8.240001 3.58,-0.869999 7.17,-1.73 10.76,-2.590001 0.01,-0.25 0.04,-0.5 0.07,-0.759998 z"/>
        </g>
      </g>
    </g>
    <g id="g564">
      <g clip-path="url(#clipPath570)" id="g566">
        <g transform="matrix(-1.350361,2.6098168,-2.62152,-1.3564163,1818.0294,2240.3142)" id="g572">
          <path id="path574" style="fill:#f27052;fill-opacity:1;fill-rule:nonzero;stroke:none" d="m 231.67999,46.919998 c -4.41,-2.099998 -8.74,-4.380001 -13.24,-6.260002 -41.92,-17.48 -85.47,-26.620001 -131.039996,-25.620001 -17.57,0.390001 -34.830002,2.42 -51.630001,7.76 -11.24,3.57 -21.629999,8.560002 -29.8300001,17.340001 -0.3800001,0.409999 -0.9099998,0.669998 -1.3299999,0.959999 -4.94000008,-3.310002 -6.06,-9.060002 -2.6400001,-13.470002 4.5200002,-5.84 10.4899991,-9.899999 16.9700001,-13.17 C 34.229992,6.7499933 50.659992,3.1599932 67.569992,1.4399929 c 6.75,1.3200002 13.330002,-0.88999998 20.020004,-0.98000001 6.75,-0.1 13.510004,-0.4600000127551 20.260004,-0.45000002 21.9,0.03 43.38999,3.29999993 64.66999,8.27000023 19.00999,4.4400009 37.36999,10.6999989 55.07001,18.9199999 0.3,0.14 0.64,0.18 1.46,0.41 -0.75999,-2.08 -2.05999,-3.360001 -3.19,-4.65 -2.02,-2.299999 -3.02,-4.42 -1,-7.42 0.98,-1.449999 0.99001,-3.55 3.28999,-4.399999 0.62,0.5 1.4,0.979999 1.99001,1.64 9.86999,11.020001 19.73,22.040002 29.55,33.099999 2.31,2.610001 2.29001,3.46 0.51001,6.5 -0.33999,0.580002 -0.66,1.189999 -0.83999,1.830002 -1.15,4.029999 -3.68,5.82 -7.80001,6.07 -10.11,0.619999 -20.21,1.360001 -30.3,2.18 -2.53999,0.209999 -5.09,0.75 -7.53,1.48 -2.16,0.650001 -4.17999,1.769996 -6.42999,2.760002 -1.10001,-3.020001 0.42999,-5.59 1.95,-8.189999 2.63,-4.5 6.64999,-7.029998 11.6,-8.240001 3.58,-0.869999 7.17,-1.73 10.76,-2.590001 0.01,-0.25 0.04,-0.5 0.07,-0.759998 z"/>
        </g>
      </g>
    </g>
    <g id="g576">
      <g clip-path="url(#clipPath582)" id="g578">
        <g transform="matrix(0.07636564,2.1010334,-2.1069298,0.07657995,5244.6226,2220.4668)" id="g584">
          <path id="path586" style="fill:#69a95d;fill-opacity:1;fill-rule:nonzero;stroke:none" d="m 231.67999,46.919998 c -4.41,-2.099998 -8.74,-4.380001 -13.24,-6.260002 -41.92,-17.48 -85.47,-26.620001 -131.039996,-25.620001 -17.57,0.390001 -34.830002,2.42 -51.630001,7.76 -11.24,3.57 -21.629999,8.560002 -29.8300001,17.340001 -0.3800001,0.409999 -0.9099998,0.669998 -1.3299999,0.959999 -4.94000008,-3.310002 -6.06,-9.060002 -2.6400001,-13.470002 4.5200002,-5.84 10.4899991,-9.899999 16.9700001,-13.17 C 34.229992,6.7499933 50.659992,3.1599932 67.569992,1.4399929 c 6.75,1.3200002 13.330002,-0.88999998 20.020004,-0.98000001 6.75,-0.1 13.510004,-0.4600000127551 20.260004,-0.45000002 21.9,0.03 43.38999,3.29999993 64.66999,8.27000023 19.00999,4.4400009 37.36999,10.6999989 55.07001,18.9199999 0.3,0.14 0.64,0.18 1.46,0.41 -0.75999,-2.08 -2.05999,-3.360001 -3.19,-4.65 -2.02,-2.299999 -3.02,-4.42 -1,-7.42 0.98,-1.449999 0.99001,-3.55 3.28999,-4.399999 0.62,0.5 1.4,0.979999 1.99001,1.64 9.86999,11.020001 19.73,22.040002 29.55,33.099999 2.31,2.610001 2.29001,3.46 0.51001,6.5 -0.33999,0.580002 -0.66,1.189999 -0.83999,1.830002 -1.15,4.029999 -3.68,5.82 -7.80001,6.07 -10.11,0.619999 -20.21,1.360001 -30.3,2.18 -2.53999,0.209999 -5.09,0.75 -7.53,1.48 -2.16,0.650001 -4.17999,1.769996 -6.42999,2.760002 -1.10001,-3.020001 0.42999,-5.59 1.95,-8.189999 2.63,-4.5 6.64999,-7.029998 11.6,-8.240001 3.58,-0.869999 7.17,-1.73 10.76,-2.590001 0.01,-0.25 0.04,-0.5 0.07,-0.759998 z"/>
        </g>
      </g>
    </g>
    <g id="g588">
      <g clip-path="url(#clipPath594)" id="g590">
        <g transform="matrix(0.59408081,5.8237534,5.826211,-0.59433156,248.45859,1364.7959)" id="g596">
          <path id="path598" style="fill:#f27052;fill-opacity:1;fill-rule:nonzero;stroke:none" d="m 231.67999,46.919998 c -4.41,-2.099998 -8.74,-4.380001 -13.24,-6.260002 -41.92,-17.48 -85.47,-26.620001 -131.039996,-25.620001 -17.57,0.390001 -34.830002,2.42 -51.630001,7.76 -11.24,3.57 -21.629999,8.560002 -29.8300001,17.340001 -0.3800001,0.409999 -0.9099998,0.669998 -1.3299999,0.959999 -4.94000008,-3.310002 -6.06,-9.060002 -2.6400001,-13.470002 4.5200002,-5.84 10.4899991,-9.899999 16.9700001,-13.17 C 34.229992,6.7499933 50.659992,3.1599932 67.569992,1.4399929 c 6.75,1.3200002 13.330002,-0.88999998 20.020004,-0.98000001 6.75,-0.1 13.510004,-0.4600000127551 20.260004,-0.45000002 21.9,0.03 43.38999,3.29999993 64.66999,8.27000023 19.00999,4.4400009 37.36999,10.6999989 55.07001,18.9199999 0.3,0.14 0.64,0.18 1.46,0.41 -0.75999,-2.08 -2.05999,-3.360001 -3.19,-4.65 -2.02,-2.299999 -3.02,-4.42 -1,-7.42 0.98,-1.449999 0.99001,-3.55 3.28999,-4.399999 0.62,0.5 1.4,0.979999 1.99001,1.64 9.86999,11.020001 19.73,22.040002 29.55,33.099999 2.31,2.610001 2.29001,3.46 0.51001,6.5 -0.33999,0.580002 -0.66,1.189999 -0.83999,1.830002 -1.15,4.029999 -3.68,5.82 -7.80001,6.07 -10.11,0.619999 -20.21,1.360001 -30.3,2.18 -2.53999,0.209999 -5.09,0.75 -7.53,1.48 -2.16,0.650001 -4.17999,1.769996 -6.42999,2.760002 -1.10001,-3.020001 0.42999,-5.59 1.95,-8.189999 2.63,-4.5 6.64999,-7.029998 11.6,-8.240001 3.58,-0.869999 7.17,-1.73 10.76,-2.590001 0.01,-0.25 0.04,-0.5 0.07,-0.759998 z"/>
        </g>
      </g>
    </g>
    <g id="g600">
      <g clip-path="url(#clipPath606)" id="g602">
        <g transform="matrix(-0.25276336,1.3626208,-1.381972,-0.25635296,3640.5596,1237.1882)" id="g608">
          <path id="path610" style="fill:#fbb040;fill-opacity:1;fill-rule:nonzero;stroke:none" d="m 231.67999,46.919998 c -4.41,-2.099998 -8.74,-4.380001 -13.24,-6.260002 -41.92,-17.48 -85.47,-26.620001 -131.039996,-25.620001 -17.57,0.390001 -34.830002,2.42 -51.630001,7.76 -11.24,3.57 -21.629999,8.560002 -29.8300001,17.340001 -0.3800001,0.409999 -0.9099998,0.669998 -1.3299999,0.959999 -4.94000008,-3.310002 -6.06,-9.060002 -2.6400001,-13.470002 4.5200002,-5.84 10.4899991,-9.899999 16.9700001,-13.17 C 34.229992,6.7499933 50.659992,3.1599932 67.569992,1.4399929 c 6.75,1.3200002 13.330002,-0.88999998 20.020004,-0.98000001 6.75,-0.1 13.510004,-0.4600000127551 20.260004,-0.45000002 21.9,0.03 43.38999,3.29999993 64.66999,8.27000023 19.00999,4.4400009 37.36999,10.6999989 55.07001,18.9199999 0.3,0.14 0.64,0.18 1.46,0.41 -0.75999,-2.08 -2.05999,-3.360001 -3.19,-4.65 -2.02,-2.299999 -3.02,-4.42 -1,-7.42 0.98,-1.449999 0.99001,-3.55 3.28999,-4.399999 0.62,0.5 1.4,0.979999 1.99001,1.64 9.86999,11.020001 19.73,22.040002 29.55,33.099999 2.31,2.610001 2.29001,3.46 0.51001,6.5 -0.33999,0.580002 -0.66,1.189999 -0.83999,1.830002 -1.15,4.029999 -3.68,5.82 -7.80001,6.07 -10.11,0.619999 -20.21,1.360001 -30.3,2.18 -2.53999,0.209999 -5.09,0.75 -7.53,1.48 -2.16,0.650001 -4.17999,1.769996 -6.42999,2.760002 -1.10001,-3.020001 0.42999,-5.59 1.95,-8.189999 2.63,-4.5 6.64999,-7.029998 11.6,-8.240001 3.58,-0.869999 7.17,-1.73 10.76,-2.590001 0.01,-0.25 0.04,-0.5 0.07,-0.759998 z"/>
        </g>
      </g>
    </g>
    <g id="g612">
      <g clip-path="url(#clipPath618)" id="g614">
        <g transform="matrix(-2.8163526,1.1925703,1.1874665,2.8042994,1867.6045,173.55031)" id="g620">
          <path id="path622" style="fill:#0096ad;fill-opacity:1;fill-rule:nonzero;stroke:none" d="m 231.67999,46.919998 c -4.41,-2.099998 -8.74,-4.380001 -13.24,-6.260002 -41.92,-17.48 -85.47,-26.620001 -131.039996,-25.620001 -17.57,0.390001 -34.830002,2.42 -51.630001,7.76 -11.24,3.57 -21.629999,8.560002 -29.8300001,17.340001 -0.3800001,0.409999 -0.9099998,0.669998 -1.3299999,0.959999 -4.94000008,-3.310002 -6.06,-9.060002 -2.6400001,-13.470002 4.5200002,-5.84 10.4899991,-9.899999 16.9700001,-13.17 C 34.229992,6.7499933 50.659992,3.1599932 67.569992,1.4399929 c 6.75,1.3200002 13.330002,-0.88999998 20.020004,-0.98000001 6.75,-0.1 13.510004,-0.4600000127551 20.260004,-0.45000002 21.9,0.03 43.38999,3.29999993 64.66999,8.27000023 19.00999,4.4400009 37.36999,10.6999989 55.07001,18.9199999 0.3,0.14 0.64,0.18 1.46,0.41 -0.75999,-2.08 -2.05999,-3.360001 -3.19,-4.65 -2.02,-2.299999 -3.02,-4.42 -1,-7.42 0.98,-1.449999 0.99001,-3.55 3.28999,-4.399999 0.62,0.5 1.4,0.979999 1.99001,1.64 9.86999,11.020001 19.73,22.040002 29.55,33.099999 2.31,2.610001 2.29001,3.46 0.51001,6.5 -0.33999,0.580002 -0.66,1.189999 -0.83999,1.830002 -1.15,4.029999 -3.68,5.82 -7.80001,6.07 -10.11,0.619999 -20.21,1.360001 -30.3,2.18 -2.53999,0.209999 -5.09,0.75 -7.53,1.48 -2.16,0.650001 -4.17999,1.769996 -6.42999,2.760002 -1.10001,-3.020001 0.42999,-5.59 1.95,-8.189999 2.63,-4.5 6.64999,-7.029998 11.6,-8.240001 3.58,-0.869999 7.17,-1.73 10.76,-2.590001 0.01,-0.25 0.04,-0.5 0.07,-0.759998 z"/>
        </g>
      </g>
    </g>
    <g id="g624">
      <g clip-path="url(#clipPath630)" id="g626">
        <g transform="matrix(1625,0,0,-568.75,4308.291,621.63385)" id="g632">
          <image id="image638" mask="url(#mask634)" transform="matrix(1,0,0,-1,0,1)" preserveAspectRatio="none" style="image-rendering:optimizeSpeed" height="1" width="1"/>
        </g>
      </g>
    </g>
  </g>
</svg>